<?xml version="1.0" encoding="utf-8"?>
<!-- Generator: Adobe Illustrator 27.2.0, SVG Export Plug-In . SVG Version: 6.00 Build 0)  -->
<svg version="1.1" id="Layer_1" xmlns="http://www.w3.org/2000/svg" xmlns:xlink="http://www.w3.org/1999/xlink" x="0px" y="0px"
	 viewBox="0 0 370 185" enable-background="new 0 0 370 185" xml:space="preserve">
<g>
	<path fill="#FFFFFF" d="M-15-107.5v400h400v-400H-15z M67.7,122.7c-1.4,3.4-3.5,6.4-6.3,8.9s-6.1,4.4-10.1,5.7c-4,1.4-8.5,2-13.6,2
		c-10.5,0-20.2-3.1-29.1-9.4l9.2-17.4c3.2,2.9,6.4,5,9.6,6.4c3.2,1.4,6.3,2.1,9.4,2.1c3.5,0,6.1-0.8,7.9-2.4
		c1.7-1.6,2.6-3.4,2.6-5.5c0-1.2-0.2-2.3-0.7-3.2c-0.4-0.9-1.2-1.8-2.2-2.5c-1-0.8-2.4-1.5-4-2.1s-3.6-1.4-6-2.2
		c-2.8-0.9-5.5-1.9-8.2-2.9c-2.7-1.1-5.1-2.5-7.1-4.2c-2.1-1.8-3.8-4-5.1-6.7c-1.3-2.8-2-6.2-2-10.3s0.7-7.8,2-11.2
		c1.4-3.3,3.3-6.2,5.7-8.6c2.5-2.4,5.5-4.2,9-5.6c3.6-1.3,7.5-2,11.9-2c4.1,0,8.4,0.6,12.9,1.7c4.5,1.1,8.8,2.8,12.9,5l-8.6,16.8
		c-2.3-1.9-4.7-3.3-7-4.2c-2.3-0.9-4.6-1.4-6.8-1.4c-2.8,0-5.1,0.7-6.8,2c-1.8,1.3-2.6,3-2.6,5.2c0,1.5,0.4,2.7,1.3,3.6
		c0.9,1,2,1.8,3.5,2.5c1.4,0.7,3,1.3,4.8,1.8s3.6,1.1,5.3,1.6c7,2.3,12.2,5.5,15.5,9.4s4.9,9,4.9,15.3
		C69.9,115.4,69.2,119.2,67.7,122.7z M135.9,112.1H94c0,8.6,4,12.9,12.1,12.9c4.3,0,7.6-1.8,9.8-5.3h19.2
		c-3.9,12.9-13.6,19.4-29.1,19.4c-4.8,0-9.1-0.7-13.1-2.1s-7.4-3.5-10.2-6.1c-2.8-2.6-5-5.8-6.5-9.5s-2.3-7.8-2.3-12.3
		c0-4.7,0.7-8.9,2.2-12.7c1.5-3.8,3.6-7,6.3-9.6c2.7-2.6,6-4.7,9.8-6.1s8.2-2.1,13-2.1s9.1,0.7,12.9,2.1c3.8,1.4,7,3.5,9.7,6.2
		c2.6,2.7,4.7,6,6,10c1.4,3.9,2.1,8.3,2.1,13.3V112.1z M161.6,137h-19.9V45.7h19.9V137z M189.7,137h-19.9V80.6h19.9V137z M190,63.2
		c-0.6,1.4-1.4,2.5-2.4,3.6c-1,1-2.2,1.8-3.6,2.4c-1.4,0.6-2.8,0.9-4.3,0.9s-3-0.3-4.3-0.9c-1.4-0.6-2.5-1.4-3.6-2.4
		c-1-1-1.8-2.2-2.4-3.6c-0.6-1.4-0.9-2.8-0.9-4.3s0.3-3,0.9-4.3c0.6-1.4,1.4-2.5,2.4-3.6c1-1,2.2-1.8,3.6-2.4
		c1.4-0.6,2.8-0.9,4.3-0.9s3,0.3,4.3,0.9c1.4,0.6,2.5,1.4,3.6,2.4c1,1,1.8,2.2,2.4,3.6c0.6,1.4,0.9,2.8,0.9,4.3S190.6,61.9,190,63.2
		z M257.9,116.2c0,7.6-2.5,13.3-7.5,17.2c-5,3.8-12.5,5.7-22.5,5.7s-17.5-1.9-22.5-5.7s-7.5-9.5-7.5-17.2V80.6h19.9v31.8
		c0,7,3.4,10.5,10.1,10.5c6.7,0,10.1-3.5,10.1-10.5V80.6h19.9V116.2z M361.4,137h-19.9v-27.8c0-2.9-0.2-5.2-0.6-7s-1-3.3-1.8-4.3
		s-1.7-1.7-2.7-2.1s-2.1-0.5-3.3-0.5c-6.4,0-9.6,4.7-9.6,14v27.8h-19.9v-27.8c0-2.9-0.2-5.2-0.5-7.1c-0.4-1.9-0.9-3.4-1.6-4.5
		s-1.6-1.9-2.7-2.3s-2.4-0.6-3.8-0.6c-1.2,0-2.4,0.2-3.5,0.6s-2.1,1.1-2.9,2.1c-0.8,1.1-1.5,2.5-2,4.4s-0.7,4.3-0.7,7.3V137H266
		V80.6h19.9v6.9c5.4-5.2,11.5-7.8,18.3-7.8c8.4,0,14.7,3.5,19.1,10.6c4.5-7.1,10.9-10.7,19.1-10.7c2.6,0,5.1,0.4,7.5,1.2
		c2.3,0.8,4.4,2,6,3.6c1.7,1.6,3,3.8,4,6.4s1.5,5.8,1.5,9.6V137z"/>
	<path fill="#FFFFFF" d="M113.2,93.9c-2.1-1.7-4.5-2.5-7.5-2.5c-3.1,0-5.6,0.8-7.5,2.4s-3.2,3.9-3.7,6.8h22.8
		C116.6,97.8,115.3,95.6,113.2,93.9z"/>
</g>
</svg>
