<svg xmlns="http://www.w3.org/2000/svg" xml:space="preserve" style="fill-rule:evenodd;clip-rule:evenodd;stroke-linejoin:round;stroke-miterlimit:2" viewBox="0 0 1600 421"><path d="M0 0h1600v420.383H0z" style="fill:none"/><path d="M219.406 133.742c-10.448-8.489-20.896-14.774-31.344-18.856-10.447-4.081-20.569-6.121-30.364-6.121-12.407 0-22.528 2.938-30.364 8.815-7.836 5.877-11.754 13.55-11.754 23.018 0 6.53 1.959 11.917 5.877 16.162 3.918 4.244 9.06 7.917 15.427 11.019 6.367 3.102 13.55 5.795 21.549 8.081a571.04 571.04 0 0 1 23.752 7.346c31.344 10.448 54.281 24.406 68.81 41.873 14.529 17.468 21.793 40.241 21.793 68.32 0 18.937-3.183 36.078-9.55 51.423-6.366 15.346-15.671 28.487-27.915 39.425-12.244 10.937-27.263 19.426-45.057 25.466-17.794 6.041-37.955 9.061-60.483 9.061-46.689 0-89.95-13.876-129.783-41.629l41.139-77.379c14.366 12.733 28.568 22.201 42.608 28.405 14.039 6.203 27.915 9.305 41.628 9.305 15.672 0 27.344-3.591 35.017-10.774 7.672-7.183 11.509-15.346 11.509-24.488 0-5.55-.98-10.366-2.939-14.447-1.959-4.081-5.224-7.836-9.795-11.264-4.571-3.429-10.529-6.612-17.875-9.55-7.346-2.939-16.244-6.204-26.691-9.795a535.622 535.622 0 0 1-36.487-12.979c-11.917-4.734-22.528-11.019-31.833-18.855s-16.815-17.712-22.528-29.629c-5.714-11.918-8.571-27.018-8.571-45.302s3.02-34.854 9.06-49.709c6.041-14.856 14.53-27.589 25.467-38.2 10.938-10.612 24.324-18.856 40.159-24.733 15.835-5.876 33.548-8.815 53.138-8.815 18.284 0 37.384 2.53 57.3 7.591 19.916 5.061 39.017 12.489 57.3 22.284l-38.2 74.931ZM489.746 246.383c-2.939-12.407-8.979-22.365-18.121-29.874-9.142-7.51-20.242-11.264-33.302-11.264-13.713 0-24.896 3.591-33.548 10.774-8.652 7.183-14.121 17.304-16.406 30.364h101.377ZM385.92 297.807c0 38.2 17.957 57.3 53.872 57.3 19.263 0 33.792-7.836 43.587-23.508h85.706c-17.305 57.464-60.565 86.195-129.783 86.195-21.222 0-40.649-3.183-58.28-9.55-17.631-6.366-32.731-15.427-45.301-27.181-12.57-11.754-22.284-25.793-29.14-42.118-6.856-16.325-10.285-34.609-10.285-54.851 0-20.896 3.265-39.751 9.795-56.566 6.53-16.815 15.835-31.099 27.916-42.853 12.08-11.754 26.691-20.814 43.832-27.181 17.141-6.366 36.486-9.55 58.035-9.55 21.222 0 40.322 3.184 57.3 9.55 16.978 6.367 31.344 15.591 43.098 27.671 11.754 12.08 20.732 26.854 26.936 44.322 6.203 17.468 9.305 37.139 9.305 59.014v9.306H385.92ZM604.346 2h88.644v406.489h-88.644zM823.753 157.249v251.24h-88.644v-251.24h88.644ZM729.232 60.77c0-6.857 1.306-13.305 3.918-19.345 2.612-6.041 6.203-11.346 10.774-15.917 4.571-4.571 9.877-8.163 15.917-10.775 6.04-2.612 12.488-3.918 19.345-3.918 6.856 0 13.305 1.306 19.345 3.918 6.04 2.612 11.346 6.204 15.917 10.775 4.57 4.571 8.162 9.876 10.774 15.917 2.612 6.04 3.918 12.488 3.918 19.345 0 6.856-1.306 13.304-3.918 19.344-2.612 6.041-6.204 11.346-10.774 15.917-4.571 4.571-9.877 8.163-15.917 10.775-6.04 2.612-12.489 3.918-19.345 3.918-6.857 0-13.305-1.306-19.345-3.918-6.04-2.612-11.346-6.204-15.917-10.775-4.571-4.571-8.162-9.876-10.774-15.917-2.612-6.04-3.918-12.488-3.918-19.344ZM954.515 157.249v141.537c0 31.017 15.019 46.526 45.056 46.526 30.038 0 45.057-15.509 45.057-46.526V157.249h88.644v158.678c0 33.956-11.182 59.423-33.547 76.401-22.366 16.977-55.75 25.466-100.154 25.466-44.403 0-77.788-8.489-100.153-25.466-22.365-16.978-33.547-42.445-33.547-76.401V157.249h88.644ZM1174.9 157.249h88.644v30.854c24.16-23.181 51.26-34.772 81.297-34.772 37.221 0 65.626 15.672 85.216 47.016 19.916-31.67 48.322-47.505 85.216-47.505 11.754 0 22.855 1.714 33.303 5.142 10.448 3.428 19.426 8.816 26.936 16.162 7.509 7.346 13.468 16.896 17.875 28.65 4.408 11.754 6.612 25.956 6.612 42.608v163.085h-88.644V284.583c0-12.733-.898-23.181-2.694-31.343-1.795-8.163-4.407-14.529-7.836-19.1-3.428-4.571-7.427-7.673-11.998-9.306-4.571-1.632-9.469-2.448-14.693-2.448-28.405 0-42.608 20.732-42.608 62.197v123.906h-88.644V284.583c0-12.733-.816-23.263-2.448-31.588-1.633-8.326-4-14.937-7.102-19.835-3.101-4.897-7.101-8.244-11.998-10.04-4.898-1.795-10.612-2.693-17.142-2.693-5.55 0-10.774.816-15.671 2.448-4.898 1.633-9.224 4.816-12.979 9.55-3.754 4.735-6.693 11.265-8.815 19.59-2.122 8.326-3.183 19.182-3.183 32.568v123.906H1174.9v-251.24Z" style="fill:#2e1065;fill-rule:nonzero"/></svg>
