<svg version="1.1" id="Layer_1" xmlns="http://www.w3.org/2000/svg" xmlns:xlink="http://www.w3.org/1999/xlink" x="0px" y="0px" viewBox="0 0 720 720" style="enable-background:new 0 0 720 720;" xml:space="preserve">
<style type="text/css">
	.st0{opacity:0.25;fill:#DA63F7;enable-background:new    ;}
	.st1{opacity:0.75;}
	.st2{fill:#DA63F7;}
	.st3{fill:#00DFE0;}
	.st4{fill:#9CFFDE;}
	.st5{fill:#1F062C;}
	.st6{fill:#ECB9F9;}
	.st7{fill:#FA8D51;}
	.st8{opacity:0.13;fill:#DA63F7;enable-background:new    ;}
	.st9{fill:#FFFFFF;}
</style>
<g>
	<path class="st0" d="M171.1,301.4c-1,0-1.9-0.8-1.9-1.9s0.8-1.9,1.9-1.9c0.9,0,1.9,0,2.8-0.1c1-0.1,1.9,0.8,2,1.8   c0,1.1-0.8,1.9-1.8,2S172.1,301.4,171.1,301.4L171.1,301.4z M159.7,301.1L159.7,301.1c-1.1-0.1-2-0.1-3-0.2s-1.8-1-1.7-2.1   c0.1-1,1-1.8,2.1-1.7c0.9,0.1,1.9,0.2,2.8,0.2c1.1,0.1,1.8,1,1.8,2C161.5,300.3,160.7,301.1,159.7,301.1z M185.3,300.4   c-1,0-1.8-0.7-1.9-1.7c-0.1-1,0.6-2,1.7-2.1c0.9-0.1,1.9-0.2,2.8-0.4c1-0.1,2,0.6,2.2,1.6c0.1,1-0.6,2-1.6,2.2   c-1,0.1-1.9,0.3-2.9,0.4C185.5,300.4,185.4,300.4,185.3,300.4z M145.5,299.3c-0.1,0-0.2,0-0.3,0c-1-0.2-1.9-0.4-2.8-0.5   c-1-0.2-1.7-1.2-1.5-2.2s1.2-1.7,2.2-1.5c0.9,0.2,1.8,0.4,2.8,0.5c1,0.2,1.7,1.2,1.5,2.2C147.2,298.7,146.4,299.3,145.5,299.3z    M199.4,298c-0.9,0-1.7-0.6-1.9-1.5c-0.2-1,0.4-2,1.4-2.3c0.9-0.2,1.8-0.4,2.7-0.7c1-0.3,2.1,0.4,2.3,1.4c0.3,1-0.4,2.1-1.4,2.3   c-0.9,0.2-1.9,0.5-2.8,0.7C199.7,298,199.6,298,199.4,298z M131.6,296c-0.2,0-0.4,0-0.5-0.1c-0.9-0.3-1.9-0.6-2.8-0.8   c-1-0.3-1.6-1.4-1.2-2.4c0.3-1,1.4-1.6,2.4-1.2c0.9,0.3,1.8,0.6,2.7,0.8c1,0.3,1.6,1.4,1.3,2.4C133.2,295.5,132.4,296,131.6,296z    M213.1,294c-0.8,0-1.5-0.5-1.8-1.3c-0.3-1,0.2-2.1,1.2-2.4c0.9-0.3,1.8-0.6,2.7-1c1-0.4,2.1,0.1,2.5,1.1s-0.1,2.1-1.1,2.5   c-0.9,0.3-1.8,0.7-2.7,1C213.6,294,213.3,294,213.1,294z M118.1,291.3c-0.2,0-0.5,0-0.7-0.1c-0.9-0.4-1.8-0.8-2.7-1.1   c-1-0.4-1.4-1.5-1-2.5s1.5-1.4,2.5-1c0.9,0.4,1.7,0.8,2.6,1.1c1,0.4,1.4,1.5,1,2.5C119.6,290.8,118.9,291.3,118.1,291.3z    M226.3,288.6c-0.7,0-1.4-0.4-1.7-1.1c-0.5-1,0-2.1,0.9-2.5c0.8-0.4,1.7-0.8,2.5-1.2c0.9-0.5,2.1-0.1,2.6,0.8s0.1,2.1-0.9,2.6   c-0.9,0.4-1.7,0.9-2.6,1.3C226.9,288.5,226.6,288.6,226.3,288.6z M105.2,285.1c-0.3,0-0.6-0.1-0.9-0.2c-0.8-0.5-1.7-0.9-2.5-1.4   c-0.9-0.5-1.2-1.7-0.7-2.6s1.7-1.2,2.6-0.7c0.8,0.5,1.6,0.9,2.5,1.4s1.3,1.7,0.8,2.6C106.6,284.7,105.9,285.1,105.2,285.1z    M238.9,281.8c-0.6,0-1.3-0.3-1.6-0.9c-0.5-0.9-0.3-2.1,0.6-2.6c0.8-0.5,1.6-1,2.4-1.5c0.9-0.6,2.1-0.3,2.6,0.6   c0.6,0.9,0.3,2.1-0.6,2.6c-0.8,0.5-1.6,1-2.5,1.5C239.6,281.7,239.2,281.8,238.9,281.8z M93.1,277.6c-0.4,0-0.8-0.1-1.1-0.3   c-0.8-0.6-1.6-1.1-2.4-1.7c-0.9-0.6-1-1.8-0.4-2.7c0.6-0.9,1.8-1,2.7-0.4c0.8,0.6,1.5,1.1,2.3,1.6c0.9,0.6,1.1,1.8,0.5,2.7   C94.3,277.3,93.7,277.6,93.1,277.6z M250.6,273.7c-0.6,0-1.1-0.3-1.5-0.7c-0.6-0.8-0.5-2,0.3-2.7c0.7-0.6,1.5-1.2,2.2-1.7   c0.8-0.7,2-0.5,2.7,0.3s0.5,2-0.3,2.7c-0.8,0.6-1.5,1.2-2.3,1.8C251.5,273.5,251,273.7,250.6,273.7z M81.8,268.8   c-0.4,0-0.9-0.2-1.2-0.5c-0.7-0.6-1.5-1.3-2.2-1.9c-0.8-0.7-0.8-1.9-0.1-2.7c0.7-0.8,1.9-0.8,2.7-0.1c0.7,0.6,1.4,1.3,2.1,1.9   c0.8,0.7,0.9,1.9,0.2,2.7C82.9,268.6,82.3,268.8,81.8,268.8z M261.5,264.4c-0.5,0-1-0.2-1.4-0.6c-0.7-0.8-0.7-2,0.1-2.7   c0.7-0.6,1.3-1.3,2-2c0.7-0.7,2-0.7,2.7,0c0.7,0.7,0.7,2,0,2.7c-0.7,0.7-1.4,1.4-2.1,2C262.4,264.2,261.9,264.4,261.5,264.4z    M71.5,258.9c-0.5,0-1-0.2-1.4-0.6c-0.7-0.7-1.3-1.4-2-2.1c-0.7-0.8-0.6-2,0.2-2.7c0.8-0.7,2-0.6,2.7,0.2c0.6,0.7,1.3,1.4,1.9,2.1   c0.7,0.8,0.7,2-0.1,2.7C72.5,258.7,72,258.9,71.5,258.9z M271.2,253.9c-0.4,0-0.9-0.1-1.2-0.4c-0.8-0.7-0.9-1.9-0.2-2.7   c0.6-0.7,1.2-1.4,1.8-2.2c0.7-0.8,1.9-0.9,2.7-0.3c0.8,0.7,0.9,1.9,0.3,2.7c-0.6,0.8-1.2,1.5-1.8,2.2   C272.3,253.7,271.8,253.9,271.2,253.9z M62.4,247.9c-0.6,0-1.2-0.3-1.5-0.8c-0.6-0.8-1.1-1.6-1.7-2.3c-0.6-0.9-0.4-2,0.4-2.7   c0.9-0.6,2-0.4,2.7,0.4c0.5,0.8,1.1,1.5,1.7,2.3c0.6,0.8,0.5,2-0.4,2.7C63.2,247.8,62.8,247.9,62.4,247.9z M279.9,242.5   c-0.4,0-0.7-0.1-1.1-0.3c-0.9-0.6-1.1-1.8-0.5-2.6c0.5-0.8,1-1.6,1.6-2.4c0.6-0.9,1.7-1.1,2.6-0.6c0.9,0.6,1.1,1.8,0.6,2.6   c-0.5,0.8-1.1,1.6-1.6,2.4C281.1,242.3,280.5,242.5,279.9,242.5z M54.4,236c-0.7,0-1.3-0.3-1.6-0.9c-0.5-0.8-1-1.7-1.5-2.5   c-0.5-0.9-0.2-2.1,0.7-2.6c0.9-0.5,2.1-0.2,2.6,0.7c0.5,0.8,0.9,1.6,1.4,2.4c0.5,0.9,0.2,2.1-0.7,2.6C55.1,236,54.8,236,54.4,236z    M287.2,230.3c-0.3,0-0.6-0.1-0.9-0.2c-0.9-0.5-1.3-1.6-0.8-2.6c0.4-0.8,0.9-1.7,1.3-2.5c0.5-0.9,1.6-1.3,2.6-0.8   c0.9,0.5,1.3,1.6,0.8,2.6c-0.4,0.9-0.9,1.7-1.3,2.6C288.6,229.9,287.9,230.3,287.2,230.3z M47.8,223.4c-0.7,0-1.4-0.4-1.7-1.1   c-0.4-0.9-0.8-1.8-1.2-2.6c-0.4-1,0-2.1,1-2.5s2.1,0,2.5,1c0.4,0.9,0.8,1.7,1.1,2.6c0.4,1,0,2.1-0.9,2.5   C48.4,223.3,48.1,223.4,47.8,223.4z M293.2,217.3c-0.2,0-0.5,0-0.7-0.1c-1-0.4-1.5-1.5-1.1-2.5c0.3-0.9,0.7-1.8,1-2.6   c0.4-1,1.5-1.5,2.5-1.1s1.5,1.5,1.1,2.5c-0.3,0.9-0.7,1.8-1,2.7C294.7,216.9,294,217.3,293.2,217.3z M42.6,210.1   c-0.8,0-1.5-0.5-1.8-1.3c-0.3-0.9-0.6-1.8-0.9-2.8c-0.3-1,0.3-2.1,1.3-2.4c1-0.3,2.1,0.3,2.4,1.3c0.3,0.9,0.6,1.8,0.9,2.7   c0.3,1-0.2,2.1-1.2,2.4C43,210.1,42.8,210.1,42.6,210.1z M297.8,203.8c-0.2,0-0.3,0-0.5-0.1c-1-0.3-1.6-1.3-1.3-2.3   c0.3-0.9,0.5-1.8,0.7-2.7c0.3-1,1.3-1.6,2.3-1.4c1,0.3,1.6,1.3,1.4,2.3c-0.2,0.9-0.5,1.9-0.7,2.8   C299.4,203.2,298.6,203.8,297.8,203.8z M38.8,196.4c-0.9,0-1.7-0.6-1.9-1.5c-0.2-0.9-0.4-1.9-0.6-2.8c-0.2-1,0.5-2,1.5-2.2   s2,0.5,2.2,1.5c0.2,0.9,0.4,1.8,0.6,2.8c0.2,1-0.4,2-1.5,2.3C39.1,196.3,39,196.4,38.8,196.4z M300.8,189.8c-0.1,0-0.2,0-0.3,0   c-1-0.2-1.7-1.2-1.6-2.2c0.2-0.9,0.3-1.9,0.4-2.8c0.1-1,1.1-1.8,2.2-1.6c1,0.1,1.8,1.1,1.6,2.2c-0.1,1-0.3,1.9-0.4,2.9   C302.6,189.2,301.8,189.8,300.8,189.8z M36.6,182.3c-1,0-1.8-0.7-1.9-1.7c-0.1-1-0.2-1.9-0.3-2.9c-0.1-1,0.7-2,1.7-2.1   c1.1-0.1,2,0.7,2.1,1.7c0.1,0.9,0.2,1.9,0.3,2.8c0.1,1-0.6,2-1.7,2.1C36.7,182.2,36.6,182.3,36.6,182.3z M302.4,175.6h-0.1   c-1.1-0.1-1.9-1-1.8-2c0.1-0.9,0.1-1.9,0.1-2.8c0-1.1,0.9-1.9,2-1.8c1.1,0,1.9,0.9,1.8,2c0,1-0.1,1.9-0.1,2.9   C304.2,174.8,303.4,175.6,302.4,175.6z M35.8,168c-1.1,0-1.9-0.9-1.9-1.9s0-1.9,0-2.9s0.9-1.9,1.9-1.9l0,0c1.1,0,1.9,0.9,1.9,1.9   c0,0.9,0,1.9,0,2.8C37.7,167.1,36.9,168,35.8,168z M302.5,161.3c-1,0-1.9-0.8-1.9-1.8c0-0.9-0.1-1.9-0.2-2.8c-0.1-1,0.7-2,1.8-2   c1.1-0.1,2,0.7,2,1.8c0.1,1,0.1,1.9,0.2,2.9C304.4,160.4,303.6,161.3,302.5,161.3L302.5,161.3z M36.6,153.7c-0.1,0-0.1,0-0.2,0   c-1-0.1-1.8-1.1-1.7-2.1c0.1-1,0.2-1.9,0.3-2.9c0.1-1,1.1-1.8,2.1-1.6c1,0.1,1.8,1.1,1.6,2.1c-0.1,0.9-0.2,1.9-0.3,2.8   C38.4,153,37.5,153.7,36.6,153.7z M301,147.1c-0.9,0-1.7-0.7-1.9-1.6c-0.1-0.9-0.3-1.9-0.5-2.8c-0.2-1,0.5-2,1.5-2.2s2,0.5,2.2,1.5   c0.2,0.9,0.3,1.9,0.5,2.9s-0.5,2-1.6,2.2C301.2,147.1,301.1,147.1,301,147.1z M38.8,139.6c-0.1,0-0.3,0-0.4,0   c-1-0.2-1.7-1.2-1.5-2.3c0.2-0.9,0.4-1.9,0.6-2.8c0.2-1,1.3-1.7,2.3-1.4c1,0.2,1.7,1.3,1.4,2.3c-0.2,0.9-0.4,1.8-0.6,2.7   C40.5,139,39.7,139.6,38.8,139.6z M298,133.2c-0.8,0-1.6-0.6-1.8-1.4c-0.2-0.9-0.5-1.8-0.8-2.7c-0.3-1,0.3-2.1,1.3-2.4   s2.1,0.3,2.4,1.3c0.3,0.9,0.5,1.9,0.8,2.8c0.3,1-0.3,2.1-1.3,2.3C298.4,133.1,298.2,133.2,298,133.2z M42.6,125.9   c-0.2,0-0.4,0-0.6-0.1c-1-0.3-1.5-1.4-1.2-2.4c0.3-0.9,0.6-1.8,0.9-2.8c0.4-1,1.4-1.5,2.4-1.2c1,0.4,1.5,1.4,1.2,2.4   c-0.3,0.9-0.6,1.8-0.9,2.7C44.1,125.3,43.4,125.9,42.6,125.9z M293.6,119.6c-0.8,0-1.5-0.5-1.8-1.2c-0.3-0.9-0.7-1.7-1.1-2.6   c-0.4-1,0.1-2.1,1-2.5c1-0.4,2.1,0.1,2.5,1s0.7,1.8,1.1,2.7c0.4,1-0.1,2.1-1.1,2.5C294,119.6,293.8,119.6,293.6,119.6z M47.8,112.5   c-0.3,0-0.5-0.1-0.8-0.2c-1-0.4-1.4-1.6-0.9-2.5c0.4-0.9,0.8-1.8,1.2-2.6c0.5-0.9,1.6-1.3,2.5-0.9c0.9,0.5,1.3,1.6,0.9,2.5   c-0.4,0.8-0.8,1.7-1.2,2.6C49.3,112.1,48.6,112.5,47.8,112.5z M287.7,106.6c-0.7,0-1.4-0.4-1.7-1c-0.4-0.8-0.9-1.7-1.3-2.5   c-0.5-0.9-0.2-2.1,0.8-2.6c0.9-0.5,2.1-0.2,2.6,0.8c0.5,0.8,0.9,1.7,1.4,2.6s0.1,2.1-0.8,2.6C288.3,106.5,288,106.6,287.7,106.6z    M54.5,99.9c-0.3,0-0.7-0.1-1-0.3c-0.9-0.5-1.2-1.7-0.7-2.6c0.5-0.8,1-1.7,1.5-2.5c0.6-0.9,1.7-1.2,2.6-0.6   c0.9,0.6,1.2,1.7,0.6,2.6c-0.5,0.8-1,1.6-1.5,2.4C55.8,99.6,55.1,99.9,54.5,99.9z M280.4,94.3c-0.6,0-1.2-0.3-1.6-0.9   c-0.5-0.8-1-1.6-1.6-2.3c-0.6-0.9-0.4-2.1,0.5-2.7s2.1-0.4,2.7,0.5c0.6,0.8,1.1,1.6,1.6,2.4c0.6,0.9,0.3,2.1-0.5,2.6   C281.2,94.2,280.8,94.3,280.4,94.3z M62.4,88c-0.4,0-0.8-0.1-1.1-0.4c-0.8-0.6-1-1.8-0.4-2.7c0.6-0.8,1.2-1.5,1.8-2.3   c0.6-0.8,1.8-1,2.7-0.3c0.8,0.6,1,1.8,0.3,2.7c-0.6,0.7-1.2,1.5-1.7,2.2C63.6,87.8,63,88,62.4,88z M271.9,82.8   c-0.5,0-1.1-0.2-1.5-0.7c-0.6-0.7-1.2-1.4-1.8-2.1c-0.7-0.8-0.6-2,0.2-2.7c0.8-0.7,2-0.6,2.7,0.2c0.6,0.7,1.3,1.5,1.9,2.2   c0.7,0.8,0.6,2-0.2,2.7C272.8,82.7,272.3,82.8,271.9,82.8z M71.6,77.1c-0.5,0-0.9-0.2-1.3-0.5c-0.8-0.7-0.8-1.9-0.1-2.7   c0.7-0.7,1.3-1.4,2-2.1c0.7-0.8,1.9-0.8,2.7,0c0.8,0.7,0.8,1.9,0,2.7c-0.7,0.7-1.3,1.4-1.9,2C72.6,76.9,72.1,77.1,71.6,77.1z    M262.2,72.4c-0.5,0-1-0.2-1.3-0.5c-0.7-0.7-1.4-1.3-2-1.9c-0.8-0.7-0.8-1.9-0.1-2.7c0.7-0.8,1.9-0.8,2.7-0.1   c0.7,0.7,1.4,1.3,2.1,2c0.8,0.7,0.8,1.9,0,2.7C263.2,72.2,262.7,72.4,262.2,72.4z M81.9,67.1c-0.5,0-1.1-0.2-1.4-0.7   c-0.7-0.8-0.6-2,0.2-2.7c0.7-0.6,1.5-1.3,2.2-1.9c0.8-0.7,2-0.6,2.7,0.3c0.7,0.8,0.6,2-0.3,2.7c-0.7,0.6-1.4,1.2-2.1,1.8   C82.8,67,82.3,67.1,81.9,67.1z M251.5,63c-0.4,0-0.8-0.1-1.2-0.4c-0.7-0.6-1.5-1.2-2.2-1.7c-0.8-0.6-1-1.8-0.4-2.7   c0.6-0.8,1.8-1,2.7-0.4c0.8,0.6,1.5,1.2,2.3,1.8c0.8,0.6,1,1.8,0.3,2.7C252.6,62.7,252,63,251.5,63z M93.2,58.4   c-0.6,0-1.2-0.3-1.6-0.8c-0.6-0.9-0.4-2.1,0.5-2.7c0.8-0.5,1.6-1.1,2.4-1.6c0.9-0.6,2.1-0.3,2.6,0.5c0.6,0.9,0.3,2.1-0.5,2.6   c-0.8,0.5-1.6,1-2.3,1.6C93.9,58.3,93.5,58.4,93.2,58.4z M239.8,54.8c-0.3,0-0.7-0.1-1-0.3c-0.8-0.5-1.6-1-2.4-1.5   c-0.9-0.5-1.2-1.7-0.7-2.6c0.5-0.9,1.7-1.2,2.6-0.7c0.8,0.5,1.7,1,2.5,1.5c0.9,0.6,1.2,1.7,0.6,2.6C241,54.4,240.4,54.8,239.8,54.8   z M105.3,50.9c-0.7,0-1.3-0.4-1.7-1c-0.5-0.9-0.2-2.1,0.8-2.6c0.8-0.5,1.7-0.9,2.6-1.4s2.1-0.1,2.6,0.8c0.5,0.9,0.1,2.1-0.8,2.6   c-0.8,0.4-1.7,0.9-2.5,1.3C105.9,50.8,105.6,50.9,105.3,50.9z M227.2,47.8c-0.3,0-0.6-0.1-0.8-0.2c-0.8-0.4-1.7-0.8-2.6-1.2   c-1-0.4-1.4-1.6-0.9-2.5c0.4-1,1.6-1.4,2.5-0.9c0.9,0.4,1.8,0.8,2.6,1.2c0.9,0.5,1.3,1.6,0.9,2.5C228.6,47.4,228,47.8,227.2,47.8z    M118.2,44.7c-0.7,0-1.5-0.4-1.8-1.2c-0.4-1,0.1-2.1,1-2.5s1.8-0.7,2.7-1.1c1-0.4,2.1,0.1,2.5,1.1s-0.1,2.1-1.1,2.5   c-0.9,0.3-1.7,0.7-2.6,1.1C118.7,44.7,118.4,44.7,118.2,44.7z M214.1,42.3c-0.2,0-0.4,0-0.6-0.1c-0.9-0.3-1.8-0.6-2.7-0.9   c-1-0.3-1.5-1.4-1.2-2.4s1.4-1.5,2.4-1.2c0.9,0.3,1.8,0.6,2.8,0.9c1,0.4,1.5,1.4,1.2,2.4C215.6,41.8,214.8,42.3,214.1,42.3z    M131.6,40c-0.8,0-1.6-0.5-1.8-1.4c-0.3-1,0.3-2.1,1.3-2.4c0.9-0.3,1.9-0.5,2.8-0.8c1-0.3,2.1,0.3,2.3,1.3c0.3,1-0.3,2.1-1.3,2.3   c-0.9,0.2-1.8,0.5-2.7,0.8C132,39.9,131.8,40,131.6,40z M200.4,38.2c-0.1,0-0.3,0-0.4-0.1c-0.9-0.2-1.8-0.4-2.7-0.6   c-1-0.2-1.7-1.2-1.5-2.3c0.2-1,1.2-1.7,2.3-1.5c0.9,0.2,1.9,0.4,2.8,0.6c1,0.2,1.7,1.3,1.4,2.3C202,37.7,201.2,38.2,200.4,38.2z    M145.5,36.7c-0.9,0-1.7-0.6-1.9-1.6c-0.2-1,0.5-2,1.5-2.2c0.9-0.2,1.9-0.3,2.9-0.5s2,0.5,2.2,1.6s-0.5,2-1.6,2.2   c-0.9,0.1-1.9,0.3-2.8,0.5C145.8,36.7,145.7,36.7,145.5,36.7z M186.3,35.7c-0.1,0-0.2,0-0.2,0c-0.9-0.1-1.9-0.2-2.8-0.3   c-1-0.1-1.8-1.1-1.7-2.1s1.1-1.8,2.1-1.7s1.9,0.2,2.9,0.3s1.8,1.1,1.6,2.1C188.1,35,187.3,35.7,186.3,35.7z M159.7,34.9   c-1,0-1.8-0.8-1.9-1.8c-0.1-1.1,0.7-2,1.8-2c1-0.1,1.9-0.1,2.9-0.2c1-0.1,1.9,0.8,2,1.8c0.1,1.1-0.8,1.9-1.8,2   c-0.9,0-1.9,0.1-2.8,0.2C159.8,34.9,159.8,34.9,159.7,34.9z M172.1,34.6C172.1,34.6,172,34.6,172.1,34.6c-1,0-1.9,0-2.9,0   c-1.1,0-1.9-0.9-1.9-1.9s0.9-1.9,1.9-1.9s1.9,0,2.9,0c1.1,0,1.9,0.9,1.9,1.9C174,33.8,173.1,34.6,172.1,34.6z"/>
	<g class="st1">
		<path class="st2" d="M169.3,253.8h-0.1c-0.9,0-1.8,0-2.7,0c-1.1,0-1.9-0.9-1.8-2c0-1.1,0.9-1.9,2-1.8c0.9,0,1.8,0,2.7,0    c1.1,0,1.9,0.9,1.9,1.9C171.2,252.9,170.3,253.8,169.3,253.8z M180.6,253c-0.9,0-1.8-0.7-1.9-1.7c-0.1-1,0.6-2,1.6-2.1    c0.9-0.1,1.8-0.3,2.7-0.4c1-0.2,2,0.5,2.2,1.6c0.2,1-0.5,2-1.6,2.2c-0.9,0.2-1.9,0.3-2.9,0.4C180.8,253,180.7,253,180.6,253z     M155.2,252.6c-0.1,0-0.2,0-0.3,0c-1-0.2-1.9-0.3-2.9-0.5s-1.7-1.2-1.5-2.2s1.2-1.7,2.2-1.5c0.9,0.2,1.8,0.3,2.7,0.5    c1,0.2,1.7,1.2,1.6,2.2C156.9,252,156.1,252.6,155.2,252.6z M194.4,250c-0.8,0-1.6-0.5-1.8-1.3c-0.3-1,0.3-2.1,1.3-2.4    c0.9-0.3,1.8-0.6,2.6-0.9c1-0.3,2.1,0.2,2.4,1.2c0.3,1-0.2,2.1-1.2,2.4c-0.9,0.3-1.8,0.6-2.8,0.9C194.8,250,194.6,250,194.4,250z     M141.4,249.2c-0.2,0-0.4,0-0.6-0.1c-0.9-0.3-1.8-0.6-2.7-1c-1-0.4-1.5-1.5-1.1-2.5c0.4-1,1.5-1.5,2.5-1.1    c0.9,0.3,1.7,0.6,2.6,0.9c1,0.3,1.5,1.4,1.2,2.4C143,248.7,142.2,249.2,141.4,249.2z M207.6,244.7c-0.7,0-1.4-0.4-1.7-1.1    c-0.5-0.9-0.1-2.1,0.8-2.6c0.8-0.4,1.6-0.8,2.5-1.3s2.1-0.2,2.6,0.8c0.5,0.9,0.2,2.1-0.8,2.6c-0.8,0.5-1.7,0.9-2.6,1.3    C208.2,244.7,207.9,244.7,207.6,244.7z M128.5,243.5c-0.3,0-0.6-0.1-0.9-0.2c-0.9-0.5-1.7-0.9-2.5-1.4c-0.9-0.5-1.2-1.7-0.7-2.6    s1.7-1.2,2.6-0.7c0.8,0.5,1.6,0.9,2.4,1.4c0.9,0.5,1.3,1.7,0.8,2.6C129.8,243.1,129.1,243.5,128.5,243.5z M219.7,237.4    c-0.6,0-1.2-0.3-1.5-0.8c-0.6-0.9-0.4-2,0.4-2.7c0.7-0.5,1.5-1.1,2.2-1.7c0.8-0.7,2-0.5,2.7,0.3c0.6,0.8,0.5,2-0.3,2.7    c-0.8,0.6-1.5,1.2-2.3,1.7C220.4,237.2,220.1,237.4,219.7,237.4z M116.6,235.7c-0.4,0-0.8-0.1-1.2-0.4c-0.8-0.6-1.5-1.2-2.3-1.8    c-0.8-0.7-0.9-1.9-0.2-2.7c0.7-0.8,1.9-0.9,2.7-0.2c0.7,0.6,1.4,1.2,2.2,1.7c0.8,0.6,1,1.8,0.3,2.7    C117.7,235.5,117.2,235.7,116.6,235.7z M230.4,228.1c-0.5,0-1-0.2-1.3-0.5c-0.8-0.7-0.8-1.9,0-2.7c0.6-0.7,1.3-1.3,1.9-2    c0.7-0.8,1.9-0.8,2.7-0.1c0.8,0.7,0.8,1.9,0.1,2.7c-0.7,0.7-1.3,1.4-2,2.1C231.4,227.9,230.9,228.1,230.4,228.1z M106.2,226.1    c-0.5,0-1-0.2-1.4-0.6c-0.7-0.7-1.3-1.4-1.9-2.2c-0.7-0.8-0.6-2,0.2-2.7c0.8-0.7,2-0.6,2.7,0.2c0.6,0.7,1.2,1.4,1.8,2.1    c0.7,0.8,0.7,2-0.1,2.7C107.1,226,106.6,226.1,106.2,226.1z M239.4,217.2c-0.4,0-0.8-0.1-1.1-0.3c-0.9-0.6-1.1-1.8-0.5-2.7    c0.5-0.8,1.1-1.5,1.6-2.3c0.6-0.9,1.8-1.1,2.6-0.6c0.9,0.6,1.1,1.8,0.6,2.6c-0.5,0.8-1.1,1.6-1.6,2.4    C240.6,216.9,240,217.2,239.4,217.2z M97.5,215c-0.6,0-1.2-0.3-1.6-0.9c-0.5-0.8-1-1.6-1.5-2.4c-0.5-0.9-0.3-2.1,0.6-2.6    s2.1-0.3,2.6,0.6c0.5,0.8,1,1.6,1.5,2.3c0.6,0.9,0.3,2.1-0.5,2.6C98.2,214.9,97.8,215,97.5,215z M246.6,205    c-0.3,0-0.6-0.1-0.8-0.2c-1-0.5-1.4-1.6-0.9-2.5c0.4-0.8,0.8-1.7,1.2-2.5c0.4-1,1.5-1.4,2.5-1s1.4,1.5,1,2.5    c-0.4,0.9-0.8,1.8-1.2,2.6C248,204.6,247.3,205,246.6,205z M90.7,202.5c-0.7,0-1.4-0.4-1.7-1.1c-0.4-0.9-0.8-1.8-1.1-2.7    c-0.4-1,0.1-2.1,1.1-2.5s2.1,0.1,2.5,1.1c0.3,0.9,0.7,1.7,1.1,2.5c0.4,1,0,2.1-1,2.5C91.2,202.5,91,202.5,90.7,202.5z     M251.6,191.7c-0.2,0-0.4,0-0.5-0.1c-1-0.3-1.6-1.3-1.3-2.4c0.3-0.9,0.5-1.8,0.7-2.7c0.3-1,1.3-1.6,2.3-1.4c1,0.3,1.6,1.3,1.4,2.3    c-0.2,0.9-0.5,1.9-0.8,2.8C253.2,191.2,252.5,191.7,251.6,191.7z M86.1,189.2c-0.9,0-1.6-0.6-1.8-1.4c-0.2-0.9-0.5-1.9-0.7-2.8    c-0.2-1,0.4-2,1.5-2.3c1-0.2,2,0.4,2.3,1.5c0.2,0.9,0.4,1.8,0.6,2.7c0.3,1-0.4,2.1-1.4,2.3C86.4,189.2,86.2,189.2,86.1,189.2z     M254.4,177.9c-0.1,0-0.1,0-0.2,0c-1-0.1-1.8-1.1-1.7-2.1c0.1-0.9,0.2-1.8,0.3-2.8s1-1.8,2.1-1.7c1,0.1,1.8,1,1.7,2.1    c-0.1,1-0.2,1.9-0.3,2.9C256.2,177.1,255.4,177.9,254.4,177.9z M83.7,175.2c-1,0-1.8-0.8-1.9-1.7c-0.1-1-0.1-1.9-0.2-2.9    c-0.1-1.1,0.8-1.9,1.8-2c1.1-0.1,1.9,0.8,2,1.8c0,0.9,0.1,1.8,0.2,2.8c0.1,1-0.7,2-1.7,2.1C83.9,175.2,83.8,175.2,83.7,175.2z     M254.9,163.7c-1,0-1.9-0.8-1.9-1.8c0-0.9-0.1-1.8-0.2-2.8c-0.1-1,0.7-2,1.7-2.1s2,0.7,2.1,1.7s0.1,1.9,0.2,2.9    C256.8,162.8,256,163.7,254.9,163.7L254.9,163.7z M83.7,161c-0.1,0-0.1,0-0.2,0c-1-0.1-1.8-1-1.7-2.1c0.1-1,0.2-1.9,0.3-2.9    s1.1-1.8,2.1-1.7c1,0.1,1.8,1.1,1.7,2.1c-0.1,0.9-0.2,1.8-0.3,2.8C85.5,160.3,84.7,161,83.7,161z M253,149.7    c-0.9,0-1.7-0.6-1.9-1.5s-0.4-1.8-0.6-2.7c-0.3-1,0.4-2.1,1.4-2.3c1-0.3,2.1,0.4,2.3,1.4c0.2,0.9,0.5,1.9,0.7,2.8    c0.2,1-0.4,2-1.5,2.3C253.3,149.7,253.1,149.7,253,149.7z M86,147.1c-0.2,0-0.3,0-0.5-0.1c-1-0.3-1.6-1.3-1.4-2.3    c0.2-0.9,0.5-1.9,0.8-2.8c0.3-1,1.3-1.6,2.4-1.3c1,0.3,1.6,1.3,1.3,2.4c-0.3,0.9-0.5,1.8-0.7,2.7C87.7,146.5,86.9,147.1,86,147.1z     M248.9,136.1c-0.8,0-1.5-0.5-1.8-1.2c-0.3-0.9-0.7-1.7-1.1-2.5c-0.4-1,0-2.1,1-2.5s2.1,0,2.5,1c0.4,0.9,0.8,1.8,1.1,2.7    c0.4,1-0.1,2.1-1.1,2.5C249.3,136.1,249.1,136.1,248.9,136.1z M90.6,133.7c-0.3,0-0.5-0.1-0.8-0.2c-1-0.4-1.4-1.5-1-2.5    c0.4-0.9,0.8-1.8,1.2-2.6c0.5-0.9,1.6-1.4,2.5-0.9c1,0.5,1.4,1.6,0.9,2.5c-0.4,0.8-0.8,1.7-1.2,2.5    C92,133.2,91.3,133.7,90.6,133.7z M242.5,123.5c-0.6,0-1.3-0.3-1.6-0.9c-0.5-0.8-1-1.6-1.5-2.3c-0.6-0.9-0.3-2.1,0.6-2.6    c0.9-0.6,2.1-0.3,2.6,0.6c0.5,0.8,1,1.6,1.5,2.4c0.5,0.9,0.3,2.1-0.6,2.6C243.2,123.4,242.9,123.5,242.5,123.5z M97.3,121.2    c-0.4,0-0.7-0.1-1-0.3c-0.9-0.6-1.1-1.8-0.6-2.6c0.5-0.8,1.1-1.6,1.6-2.4c0.6-0.9,1.8-1.1,2.7-0.5c0.9,0.6,1.1,1.8,0.5,2.7    c-0.5,0.8-1,1.5-1.6,2.3C98.6,120.9,98,121.2,97.3,121.2z M234.2,112c-0.5,0-1.1-0.2-1.4-0.7c-0.6-0.7-1.2-1.4-1.8-2.1    c-0.7-0.8-0.7-2,0.1-2.7s2-0.7,2.7,0.1c0.7,0.7,1.3,1.4,1.9,2.2c0.7,0.8,0.6,2-0.2,2.7C235.1,111.9,234.6,112,234.2,112z M106,110    c-0.5,0-0.9-0.2-1.3-0.5c-0.8-0.7-0.8-1.9-0.1-2.7c0.7-0.7,1.3-1.4,2-2.1c0.7-0.8,1.9-0.8,2.7,0c0.8,0.7,0.8,1.9,0,2.7    c-0.6,0.7-1.3,1.3-1.9,2C107.1,109.8,106.5,110,106,110z M224.1,102.1c-0.4,0-0.9-0.1-1.2-0.4c-0.7-0.6-1.4-1.2-2.2-1.7    c-0.8-0.6-1-1.8-0.3-2.7c0.6-0.8,1.8-1,2.7-0.3c0.8,0.6,1.5,1.2,2.3,1.8c0.8,0.7,0.9,1.9,0.2,2.7    C225.2,101.9,224.6,102.1,224.1,102.1z M116.4,100.4c-0.6,0-1.1-0.3-1.5-0.7c-0.6-0.8-0.5-2,0.3-2.7c0.8-0.6,1.5-1.2,2.3-1.7    c0.8-0.6,2-0.4,2.7,0.4c0.6,0.9,0.4,2-0.4,2.7c-0.7,0.5-1.5,1.1-2.2,1.7C117.3,100.3,116.8,100.4,116.4,100.4z M212.5,94    c-0.3,0-0.7-0.1-1-0.3c-0.8-0.5-1.6-0.9-2.4-1.4c-0.9-0.5-1.3-1.7-0.8-2.6s1.7-1.3,2.6-0.8c0.9,0.5,1.7,0.9,2.5,1.4    c0.9,0.5,1.2,1.7,0.7,2.6C213.8,93.6,213.2,94,212.5,94z M128.3,92.6c-0.7,0-1.3-0.4-1.7-1c-0.5-0.9-0.2-2.1,0.8-2.6    c0.8-0.5,1.7-0.9,2.6-1.3c0.9-0.5,2.1-0.1,2.6,0.8s0.1,2.1-0.8,2.6c-0.8,0.4-1.6,0.8-2.5,1.3C128.9,92.6,128.6,92.6,128.3,92.6z     M199.7,87.8c-0.2,0-0.5,0-0.7-0.1c-0.9-0.3-1.7-0.6-2.6-0.9c-1-0.3-1.5-1.4-1.2-2.4s1.4-1.5,2.4-1.2c0.9,0.3,1.8,0.6,2.7,1    c1,0.4,1.5,1.5,1.1,2.5C201.2,87.4,200.5,87.8,199.7,87.8z M141.2,86.9c-0.8,0-1.5-0.5-1.8-1.3c-0.3-1,0.2-2.1,1.2-2.4    c0.9-0.3,1.8-0.6,2.8-0.9s2.1,0.3,2.4,1.3s-0.3,2.1-1.3,2.4c-0.9,0.3-1.8,0.6-2.6,0.9C141.6,86.9,141.4,86.9,141.2,86.9z     M186.1,83.9c-0.1,0-0.2,0-0.4,0c-0.9-0.2-1.8-0.3-2.7-0.5c-1-0.2-1.7-1.2-1.6-2.2c0.2-1,1.2-1.7,2.2-1.6c1,0.2,1.9,0.3,2.9,0.5    s1.7,1.2,1.5,2.2C187.8,83.3,187,83.9,186.1,83.9z M154.9,83.4c-0.9,0-1.7-0.7-1.9-1.6c-0.2-1,0.5-2,1.6-2.2    c1-0.2,1.9-0.3,2.9-0.4c1.1-0.1,2,0.6,2.1,1.6c0.1,1-0.6,2-1.6,2.1c-0.9,0.1-1.8,0.3-2.7,0.4C155.1,83.4,155,83.4,154.9,83.4z     M172,82.3L172,82.3c-1,0-1.9,0-2.8,0H169c-1.1,0-1.9-0.9-1.9-1.9c0-1.1,0.9-1.9,1.9-1.9h0.2l0,0c1,0,1.9,0,2.9,0    c1.1,0,1.9,0.9,1.8,2C173.9,81.5,173.1,82.3,172,82.3z"/>
	</g>
	<g>
		<g>
			<path class="st3" d="M169.2,167c-11.6,0-21-9.4-21-21s9.4-21,21-21c11.6,0,21,9.4,21,21S180.8,167,169.2,167z M169.2,128.9     c-9.5,0-17.2,7.7-17.2,17.2s7.7,17.2,17.2,17.2s17.2-7.7,17.2-17.2S178.7,128.9,169.2,128.9z"/>
			<path class="st4" d="M178.7,148h-19.1c-1.1,0-1.9-0.9-1.9-1.9c0-1.1,0.9-1.9,1.9-1.9h19.1c1.1,0,1.9,0.9,1.9,1.9     S179.8,148,178.7,148z"/>
			<path class="st4" d="M169.2,157.5c-1.1,0-1.9-0.9-1.9-1.9v-19c0-1.1,0.9-1.9,1.9-1.9s1.9,0.9,1.9,1.9v19     C171.1,156.7,170.3,157.5,169.2,157.5z"/>
		</g>
		<g>
			<path class="st3" d="M146.3,207.1c-11.6,0-21-9.4-21-21s9.4-21,21-21c11.6,0,21,9.4,21,21S157.9,207.1,146.3,207.1z M146.3,169     c-9.5,0-17.2,7.7-17.2,17.2s7.7,17.2,17.2,17.2s17.2-7.7,17.2-17.2S155.8,169,146.3,169z"/>
			<path class="st4" d="M155.9,188h-19.1c-1.1,0-1.9-0.9-1.9-1.9s0.9-1.9,1.9-1.9h19.1c1.1,0,1.9,0.9,1.9,1.9S156.9,188,155.9,188z"/>
			<path class="st4" d="M146.3,197.5c-1.1,0-1.9-0.9-1.9-1.9v-19c0-1.1,0.9-1.9,1.9-1.9c1.1,0,1.9,0.9,1.9,1.9v19     C148.2,196.7,147.4,197.5,146.3,197.5z"/>
		</g>
		<g>
			<path class="st3" d="M192.1,207.1c-11.6,0-21-9.4-21-21s9.4-21,21-21s21,9.4,21,21S203.6,207.1,192.1,207.1z M192.1,169     c-9.5,0-17.2,7.7-17.2,17.2s7.7,17.2,17.2,17.2s17.2-7.7,17.2-17.2S201.5,169,192.1,169z"/>
			<path class="st4" d="M201.6,188h-19.1c-1.1,0-1.9-0.9-1.9-1.9s0.9-1.9,1.9-1.9h19.1c1.1,0,1.9,0.9,1.9,1.9S202.7,188,201.6,188z"/>
			<path class="st4" d="M192.1,197.5c-1.1,0-1.9-0.9-1.9-1.9v-19c0-1.1,0.9-1.9,1.9-1.9s1.9,0.9,1.9,1.9v19     C194,196.7,193.1,197.5,192.1,197.5z"/>
		</g>
	</g>
	<g>
		<g>
			<circle class="st5" cx="83.5" cy="166.1" r="19.1"/>
			<path class="st2" d="M83.5,187.1c-11.6,0-21-9.4-21-21s9.4-21,21-21s21,9.4,21,21S95,187.1,83.5,187.1z M83.5,148.9     c-9.5,0-17.2,7.7-17.2,17.2s7.7,17.2,17.2,17.2s17.2-7.7,17.2-17.2S92.9,148.9,83.5,148.9z"/>
		</g>
		<path class="st6" d="M93,168H73.9c-1.1,0-1.9-0.9-1.9-1.9s0.9-1.9,1.9-1.9H93c1.1,0,1.9,0.9,1.9,1.9S94,168,93,168z"/>
	</g>
	<g>
		<g>
			<ellipse class="st5" cx="255" cy="166.1" rx="19.1" ry="19.1"/>
			<path class="st2" d="M255,187.1c-11.6,0-21-9.4-21-21s9.4-21,21-21s21,9.4,21,21S266.5,187.1,255,187.1z M255,148.9     c-9.5,0-17.2,7.7-17.2,17.2s7.7,17.2,17.2,17.2s17.2-7.7,17.2-17.2S264.4,148.9,255,148.9z"/>
		</g>
		<path class="st6" d="M264.5,168h-19.1c-1.1,0-1.9-0.9-1.9-1.9s0.9-1.9,1.9-1.9h19.1c1.1,0,1.9,0.9,1.9,1.9S265.6,168,264.5,168z"/>
	</g>
	<g>
		<g>
			<ellipse class="st5" cx="248.3" cy="278.5" rx="19.1" ry="19.1"/>
			<path class="st2" d="M248.3,299.5c-11.6,0-21-9.4-21-21s9.4-21,21-21s21,9.4,21,21S259.9,299.5,248.3,299.5z M248.3,261.4     c-9.5,0-17.2,7.7-17.2,17.2s7.7,17.2,17.2,17.2s17.2-7.7,17.2-17.2S257.8,261.4,248.3,261.4z"/>
		</g>
		<path class="st6" d="M257.8,280.4h-19.1c-1.1,0-1.9-0.9-1.9-1.9c0-1.1,0.9-1.9,1.9-1.9h19.1c1.1,0,1.9,0.9,1.9,1.9    C259.7,279.6,258.9,280.4,257.8,280.4z"/>
	</g>
	<g>
		<path class="st2" d="M277.1,287.1V280c0-0.6,0.4-1,1-1h3.9c0.5,0,1,0.4,1,1s-0.4,0.9-1,0.9h-2.9v1.8h2.4c0.5,0,0.9,0.4,0.9,0.9    s-0.4,0.9-0.9,0.9h-2.4v1.9h3c0.5,0,1,0.4,1,0.9s-0.4,1-1,1h-4C277.5,288.2,277.1,287.7,277.1,287.1z"/>
		<path class="st2" d="M284,287.1V280c0-0.6,0.5-1,1-1c0.6,0,1,0.5,1,1v6.3h2.6c0.5,0,1,0.4,1,1c0,0.5-0.4,1-1,1H285    C284.5,288.2,284,287.7,284,287.1z"/>
		<path class="st2" d="M290.4,287.1V280c0-0.6,0.4-1,1-1h3.9c0.5,0,1,0.4,1,1s-0.4,0.9-1,0.9h-2.9v1.8h2.4c0.5,0,0.9,0.4,0.9,0.9    s-0.4,0.9-0.9,0.9h-2.4v1.9h3c0.5,0,1,0.4,1,0.9s-0.4,1-1,1h-4C290.9,288.2,290.4,287.7,290.4,287.1z"/>
		<path class="st2" d="M296.8,283.6c0-2.8,2.1-4.7,4.7-4.7c1,0,1.7,0.2,2.1,0.4c0.6,0.3,0.8,0.6,0.8,1s-0.4,0.9-0.9,0.9    c-0.3,0-0.5-0.1-0.7-0.2c-0.3-0.2-0.8-0.3-1.2-0.3c-1.7,0-2.7,1.3-2.7,2.9c0,1.4,0.9,2.9,2.6,2.9c0.6,0,1-0.1,1.3-0.3    c0.3-0.1,0.6-0.3,0.9-0.3c0.5,0,0.9,0.3,0.9,0.9c0,0.3-0.2,0.6-0.4,0.8c-0.4,0.4-1.3,0.8-2.6,0.8    C298.8,288.3,296.8,286.3,296.8,283.6z"/>
		<path class="st2" d="M307.5,287.2v-6.3h-2c-0.5,0-0.9-0.4-0.9-1c0-0.5,0.4-1,0.9-1h6c0.5,0,0.9,0.4,0.9,1c0,0.5-0.4,1-0.9,1h-2    v6.3c0,0.6-0.5,1-1,1S307.5,287.8,307.5,287.2z"/>
		<path class="st2" d="M313.3,287.2v-7.1c0-0.5,0.5-1,1-1h2.2c2.2,0,3.3,1.3,3.3,2.9c0,1.2-0.7,2.1-1.6,2.6l1.7,1.9    c0.2,0.2,0.3,0.4,0.3,0.8c0,0.6-0.5,1-1,1c-0.3,0-0.6-0.1-0.9-0.5l-2.3-2.9h-0.8v2.3c0,0.6-0.5,1-1,1    C313.7,288.2,313.3,287.8,313.3,287.2z M316.2,283.2c0.9,0,1.3-0.4,1.3-1.1c0-0.8-0.6-1.1-1.3-1.1h-1v2.4L316.2,283.2L316.2,283.2    z"/>
		<path class="st2" d="M320.6,283.6c0-2.8,2.1-4.7,4.8-4.7c2.6,0,4.7,1.9,4.7,4.7c0,2.8-2.1,4.7-4.7,4.7    C322.7,288.3,320.6,286.3,320.6,283.6z M325.3,286.4c1.4,0,2.6-1,2.6-2.9s-1.1-2.9-2.6-2.9s-2.6,1-2.6,2.9S324,286.4,325.3,286.4z    "/>
		<path class="st2" d="M331.1,287.2v-7.1c0-0.7,0.6-1.1,1.2-1.1c0.4,0,0.8,0.1,1.1,0.7l3.7,5.1l0,0V280c0-0.6,0.4-1,1-1s1,0.4,1,1    v7.1c0,0.7-0.6,1.1-1.2,1.1c-0.3,0-0.8-0.2-1.1-0.7l-3.7-5l0,0v4.7c0,0.6-0.4,1-1,1C331.6,288.2,331.1,287.8,331.1,287.2z"/>
	</g>
	<g>
		<path class="st2" d="M144.9,114.3v-7.1c0-0.6,0.5-1,1-1h2.2c2.3,0,3.3,1.6,3.3,3.1s-1,3.1-3.3,3.1H147v1.9c0,0.6-0.5,1-1,1    C145.4,115.4,144.9,114.9,144.9,114.3z M147.9,110.6c1,0,1.4-0.6,1.4-1.3c0-0.7-0.5-1.3-1.4-1.3h-1v2.7L147.9,110.6L147.9,110.6z"/>
		<path class="st2" d="M152.4,114.3v-7.1c0-0.5,0.5-1,1-1h2.2c2.2,0,3.3,1.3,3.3,2.9c0,1.2-0.7,2.1-1.6,2.6l1.7,1.9    c0.2,0.2,0.3,0.4,0.3,0.8c0,0.6-0.5,1-1,1c-0.3,0-0.6-0.1-0.9-0.5l-2.3-2.9h-0.8v2.3c0,0.6-0.5,1-1,1    C152.9,115.3,152.4,114.9,152.4,114.3z M155.5,110.3c0.9,0,1.3-0.4,1.3-1.1c0-0.8-0.6-1.1-1.3-1.1h-1v2.4L155.5,110.3L155.5,110.3    z"/>
		<path class="st2" d="M159.8,110.7c0-2.8,2.1-4.7,4.8-4.7c2.6,0,4.7,1.9,4.7,4.7c0,2.8-2.1,4.7-4.7,4.7    C161.9,115.4,159.8,113.5,159.8,110.7z M164.5,113.6c1.4,0,2.6-1,2.6-2.9c0-1.8-1.1-2.9-2.6-2.9s-2.6,1-2.6,2.9    C162,112.5,163.1,113.6,164.5,113.6z"/>
		<path class="st2" d="M172,114.3v-6.4h-2c-0.5,0-0.9-0.4-0.9-1c0-0.5,0.4-1,0.9-1h6c0.5,0,0.9,0.4,0.9,1c0,0.5-0.4,1-0.9,1h-2v6.3    c0,0.6-0.5,1-1,1C172.5,115.3,172,114.9,172,114.3z"/>
		<path class="st2" d="M176.8,110.7c0-2.8,2.1-4.7,4.8-4.7c2.6,0,4.7,1.9,4.7,4.7c0,2.8-2.1,4.7-4.7,4.7    C178.9,115.4,176.8,113.5,176.8,110.7z M181.6,113.6c1.4,0,2.6-1,2.6-2.9c0-1.8-1.1-2.9-2.6-2.9s-2.6,1-2.6,2.9    C179,112.5,180.2,113.6,181.6,113.6z"/>
		<path class="st2" d="M187.4,114.3v-7.1c0-0.7,0.6-1.1,1.2-1.1c0.4,0,0.8,0.1,1.1,0.7l3.7,5.1l0,0v-4.8c0-0.6,0.4-1,1-1s1,0.4,1,1    v7.1c0,0.7-0.6,1.1-1.2,1.1c-0.3,0-0.8-0.2-1.1-0.7l-3.7-5l0,0v4.7c0,0.6-0.4,1-1,1C187.8,115.3,187.4,114.9,187.4,114.3z"/>
	</g>
</g>
<g>
	<g>
		<path class="st0" d="M500.1,644.2c-1,0-1.9-0.8-1.9-1.9c0-1.1,0.8-1.9,1.9-1.9c0.9,0,1.9,0,2.8-0.1c1,0,1.9,0.8,2,1.8    c0,1.1-0.8,1.9-1.8,2C502.1,644.2,501.1,644.2,500.1,644.2C500.2,644.2,500.2,644.2,500.1,644.2z M488.7,644L488.7,644    c-1.1-0.1-2-0.1-3-0.2c-1-0.1-1.8-1-1.7-2.1c0.1-1,1-1.8,2.1-1.7c0.9,0.1,1.9,0.2,2.8,0.2c1,0.1,1.8,1,1.8,2    C490.6,643.2,489.7,644,488.7,644z M514.4,643.2c-1,0-1.8-0.7-1.9-1.7c-0.1-1,0.6-2,1.7-2.1c0.9-0.1,1.9-0.2,2.8-0.4    c1-0.1,2,0.6,2.2,1.6c0.1,1-0.6,2-1.6,2.2c-1,0.1-1.9,0.3-2.9,0.4C514.5,643.2,514.5,643.2,514.4,643.2z M474.6,642.2    c-0.1,0-0.2,0-0.3,0c-1-0.2-1.9-0.4-2.8-0.5c-1-0.2-1.7-1.2-1.5-2.2s1.2-1.7,2.2-1.5c0.9,0.2,1.8,0.4,2.8,0.5    c1,0.2,1.7,1.2,1.5,2.2C476.3,641.5,475.5,642.2,474.6,642.2z M528.5,640.8c-0.9,0-1.7-0.6-1.9-1.5c-0.2-1,0.4-2,1.4-2.3    c0.9-0.2,1.8-0.4,2.7-0.7c1-0.3,2.1,0.4,2.3,1.4c0.3,1-0.4,2.1-1.4,2.3c-0.9,0.2-1.9,0.5-2.8,0.7    C528.7,640.8,528.6,640.8,528.5,640.8z M460.6,638.8c-0.2,0-0.4,0-0.5-0.1c-0.9-0.3-1.9-0.6-2.8-0.8c-1-0.3-1.6-1.4-1.2-2.4    c0.3-1,1.4-1.6,2.4-1.2c0.9,0.3,1.8,0.6,2.7,0.8c1,0.3,1.6,1.4,1.3,2.4C462.2,638.3,461.5,638.8,460.6,638.8z M542.2,636.8    c-0.8,0-1.5-0.5-1.8-1.3c-0.3-1,0.2-2.1,1.2-2.4c0.9-0.3,1.8-0.6,2.7-1c1-0.4,2.1,0.1,2.5,1.1s-0.1,2.1-1.1,2.5    c-0.9,0.3-1.8,0.7-2.7,1C542.6,636.8,542.4,636.8,542.2,636.8z M447.2,634.2c-0.2,0-0.5,0-0.7-0.1c-0.9-0.4-1.8-0.8-2.7-1.1    c-1-0.4-1.4-1.5-1-2.5s1.5-1.4,2.5-1c0.9,0.4,1.7,0.8,2.6,1.1c1,0.4,1.4,1.5,1,2.5C448.6,633.7,447.9,634.2,447.2,634.2z     M555.4,631.5c-0.7,0-1.4-0.4-1.7-1.1c-0.5-1,0-2.1,0.9-2.5c0.8-0.4,1.7-0.8,2.5-1.2c0.9-0.5,2.1-0.1,2.6,0.9    c0.5,0.9,0.1,2.1-0.8,2.6c-0.9,0.4-1.7,0.9-2.6,1.3C555.9,631.3,555.7,631.5,555.4,631.5z M434.3,628c-0.3,0-0.6-0.1-0.9-0.2    c-0.8-0.5-1.7-0.9-2.5-1.4c-0.9-0.5-1.2-1.7-0.7-2.6c0.5-0.9,1.7-1.2,2.6-0.7c0.8,0.5,1.6,0.9,2.5,1.4s1.3,1.7,0.8,2.6    C435.6,627.5,435,628,434.3,628z M567.9,624.7c-0.6,0-1.3-0.3-1.6-0.9c-0.5-0.9-0.3-2.1,0.6-2.6c0.8-0.5,1.6-1,2.4-1.5    c0.9-0.6,2.1-0.3,2.6,0.6c0.6,0.9,0.3,2.1-0.6,2.6c-0.8,0.5-1.6,1-2.5,1.5C568.6,624.5,568.3,624.7,567.9,624.7z M422.1,620.5    c-0.4,0-0.8-0.1-1.1-0.3c-0.8-0.6-1.6-1.1-2.4-1.7c-0.9-0.6-1-1.8-0.4-2.7c0.6-0.8,1.8-1,2.7-0.4c0.8,0.6,1.5,1.1,2.3,1.6    c0.9,0.6,1.1,1.8,0.5,2.7C423.3,620.2,422.7,620.5,422.1,620.5z M579.7,616.5c-0.6,0-1.1-0.3-1.5-0.7c-0.6-0.8-0.5-2,0.3-2.7    c0.7-0.6,1.5-1.2,2.2-1.7c0.8-0.7,2-0.5,2.7,0.3s0.5,2-0.3,2.7c-0.8,0.6-1.5,1.2-2.3,1.8C580.5,616.3,580.1,616.5,579.7,616.5z     M410.9,611.7c-0.4,0-0.9-0.2-1.2-0.5c-0.7-0.6-1.5-1.3-2.2-1.9c-0.8-0.7-0.8-1.9-0.1-2.7c0.7-0.8,1.9-0.8,2.7-0.1    c0.7,0.6,1.4,1.3,2.1,1.9c0.8,0.7,0.9,1.9,0.2,2.7C411.9,611.5,411.4,611.7,410.9,611.7z M590.5,607.2c-0.5,0-1-0.2-1.4-0.6    c-0.7-0.8-0.7-2,0.1-2.7c0.7-0.6,1.3-1.3,2-2s2-0.7,2.7,0s0.7,2,0,2.7s-1.4,1.4-2.1,2C591.5,607,591,607.2,590.5,607.2z     M400.6,601.8c-0.5,0-1-0.2-1.4-0.6c-0.7-0.7-1.3-1.4-2-2.1c-0.7-0.8-0.6-2,0.2-2.7c0.8-0.7,2-0.6,2.7,0.2    c0.6,0.7,1.3,1.4,1.9,2.1c0.7,0.8,0.7,2-0.1,2.7C401.5,601.5,401,601.8,400.6,601.8z M600.3,596.8c-0.4,0-0.9-0.1-1.2-0.4    c-0.8-0.7-0.9-1.9-0.2-2.7c0.6-0.7,1.2-1.4,1.8-2.2c0.7-0.8,1.9-0.9,2.7-0.3c0.8,0.7,0.9,1.9,0.3,2.7c-0.6,0.8-1.2,1.5-1.8,2.2    C601.4,596.5,600.8,596.8,600.3,596.8z M391.4,590.8c-0.6,0-1.2-0.3-1.5-0.8c-0.6-0.8-1.1-1.6-1.7-2.3c-0.6-0.9-0.4-2,0.4-2.7    c0.9-0.6,2-0.4,2.7,0.4c0.5,0.8,1.1,1.5,1.7,2.3s0.5,2-0.4,2.7C392.2,590.7,391.8,590.8,391.4,590.8z M608.9,585.3    c-0.4,0-0.7-0.1-1.1-0.3c-0.9-0.6-1.1-1.8-0.5-2.6c0.5-0.8,1-1.6,1.6-2.4c0.6-0.9,1.8-1.1,2.6-0.6c0.9,0.6,1.1,1.7,0.6,2.6    c-0.5,0.8-1.1,1.6-1.6,2.4C610.1,585.2,609.5,585.3,608.9,585.3z M383.5,578.8c-0.7,0-1.3-0.3-1.6-0.9c-0.5-0.8-1-1.7-1.5-2.5    c-0.5-0.9-0.2-2.1,0.7-2.6c0.9-0.5,2.1-0.2,2.6,0.7c0.5,0.8,0.9,1.6,1.4,2.4c0.5,0.9,0.2,2.1-0.7,2.6    C384.1,578.8,383.8,578.8,383.5,578.8z M616.2,573.2c-0.3,0-0.6-0.1-0.9-0.2c-0.9-0.5-1.3-1.6-0.8-2.6c0.4-0.8,0.9-1.7,1.3-2.5    c0.5-0.9,1.6-1.3,2.6-0.9c0.9,0.5,1.3,1.6,0.8,2.6c-0.4,0.9-0.9,1.7-1.3,2.6C617.6,572.8,616.9,573.2,616.2,573.2z M376.9,566.2    c-0.7,0-1.4-0.4-1.7-1.1c-0.4-0.9-0.8-1.8-1.2-2.6c-0.4-1,0-2.1,1-2.5c1-0.4,2.1,0,2.5,1c0.4,0.9,0.8,1.7,1.1,2.6    c0.4,1,0,2.1-0.9,2.5C377.4,566.2,377.1,566.2,376.9,566.2z M622.2,560.2c-0.2,0-0.5,0-0.7-0.1c-1-0.4-1.5-1.5-1.1-2.5    c0.3-0.9,0.7-1.8,1-2.6c0.4-1,1.5-1.5,2.5-1.1c1,0.4,1.5,1.5,1.1,2.5c-0.3,0.9-0.7,1.8-1,2.7C623.7,559.8,623,560.2,622.2,560.2z     M371.6,553c-0.8,0-1.5-0.5-1.8-1.3c-0.3-0.9-0.6-1.8-0.9-2.8s0.3-2.1,1.3-2.4s2.1,0.3,2.4,1.3c0.3,0.9,0.6,1.8,0.9,2.7    c0.3,1-0.2,2.1-1.2,2.4C372,553,371.8,553,371.6,553z M626.8,546.7c-0.2,0-0.3,0-0.5-0.1c-1-0.3-1.6-1.3-1.3-2.3    c0.3-0.9,0.5-1.8,0.7-2.7c0.3-1,1.3-1.6,2.3-1.4c1,0.3,1.6,1.3,1.4,2.3c-0.2,0.9-0.5,1.9-0.7,2.8    C628.4,546,627.6,546.7,626.8,546.7z M367.9,539.2c-0.9,0-1.7-0.6-1.9-1.5c-0.2-0.9-0.4-1.9-0.6-2.8c-0.2-1,0.5-2,1.5-2.2    s2,0.5,2.2,1.5c0.2,0.9,0.4,1.8,0.6,2.8s-0.4,2-1.5,2.3C368.1,539.2,368,539.2,367.9,539.2z M629.9,532.7c-0.1,0-0.2,0-0.3,0    c-1-0.2-1.7-1.2-1.6-2.2c0.2-0.9,0.3-1.9,0.4-2.8c0.1-1,1.1-1.8,2.2-1.6c1,0.1,1.8,1.1,1.6,2.2c-0.1,1-0.3,1.9-0.4,2.9    C631.6,532,630.8,532.7,629.9,532.7z M365.6,525.2c-1,0-1.8-0.7-1.9-1.7s-0.2-1.9-0.3-2.9c-0.1-1,0.7-2,1.7-2.1    c1-0.1,2,0.7,2.1,1.7c0.1,0.9,0.2,1.9,0.3,2.8c0.1,1-0.6,2-1.7,2.1C365.7,525,365.7,525.2,365.6,525.2z M631.4,518.5L631.4,518.5    c-1.2-0.1-2-1-1.9-2c0.1-0.9,0.1-1.9,0.1-2.8c0-1.1,0.9-1.9,2-1.8c1.1,0,1.9,0.9,1.8,2c0,1-0.1,1.9-0.1,2.9    C633.3,517.7,632.4,518.5,631.4,518.5z M364.8,510.8c-1.1,0-1.9-0.9-1.9-1.9s0-1.9,0-2.9c0-1.1,0.9-1.9,1.9-1.9    c1.1,0,1.9,0.9,1.9,1.9c0,0.9,0,1.9,0,2.8C366.8,509.9,365.9,510.8,364.8,510.8z M631.5,504.1c-1,0-1.9-0.8-1.9-1.8    c0-0.9-0.1-1.9-0.2-2.8c-0.1-1,0.7-2,1.8-2c1.1-0.1,2,0.7,2,1.8c0.1,1,0.1,1.9,0.2,2.9C633.4,503.2,632.6,504.1,631.5,504.1    C631.6,504.1,631.5,504.1,631.5,504.1z M365.6,496.5c-0.1,0-0.1,0-0.2,0c-1-0.1-1.8-1-1.7-2.1c0.1-1,0.2-1.9,0.3-2.9    c0.1-1,1.1-1.8,2.1-1.6c1,0.1,1.8,1.1,1.6,2.1c-0.1,0.9-0.2,1.9-0.3,2.8C367.4,495.8,366.6,496.5,365.6,496.5z M630,489.9    c-0.9,0-1.7-0.7-1.9-1.6c-0.1-0.9-0.3-1.9-0.5-2.8c-0.2-1,0.5-2,1.5-2.2s2,0.5,2.2,1.5c0.2,0.9,0.3,1.9,0.5,2.9s-0.5,2-1.6,2.2    C630.2,489.9,630.1,489.9,630,489.9z M367.9,482.4c-0.1,0-0.3,0-0.4,0c-1-0.2-1.7-1.2-1.5-2.3c0.2-0.9,0.4-1.9,0.6-2.8    c0.2-1,1.3-1.7,2.3-1.4c1,0.2,1.7,1.3,1.4,2.3c-0.2,0.9-0.4,1.8-0.6,2.7C369.5,481.8,368.7,482.4,367.9,482.4z M627.1,476    c-0.8,0-1.6-0.6-1.8-1.4c-0.2-0.9-0.5-1.8-0.8-2.7c-0.3-1,0.3-2.1,1.3-2.4s2.1,0.3,2.4,1.3c0.3,0.9,0.5,1.9,0.8,2.8    c0.3,1-0.3,2.1-1.3,2.3C627.4,475.9,627.2,476,627.1,476z M371.6,468.7c-0.2,0-0.4,0-0.6-0.1c-1-0.3-1.5-1.4-1.2-2.4    c0.3-0.9,0.6-1.8,0.9-2.8c0.4-1,1.4-1.5,2.4-1.2c1,0.4,1.5,1.4,1.2,2.4c-0.3,0.9-0.6,1.8-0.9,2.7    C373.2,468.1,372.4,468.7,371.6,468.7z M622.6,462.4c-0.8,0-1.5-0.5-1.8-1.2c-0.3-0.9-0.7-1.7-1.1-2.6c-0.4-1,0.1-2.1,1-2.5    c1-0.4,2.1,0.1,2.5,1s0.7,1.8,1.1,2.7c0.4,1-0.1,2.1-1.1,2.5C623.1,462.4,622.8,462.4,622.6,462.4z M376.9,455.3    c-0.3,0-0.5-0.1-0.8-0.2c-1-0.4-1.4-1.6-0.9-2.5c0.4-0.9,0.8-1.8,1.2-2.6c0.5-0.9,1.6-1.3,2.5-0.9c0.9,0.5,1.3,1.6,0.9,2.5    c-0.4,0.8-0.8,1.7-1.2,2.6C378.3,454.9,377.6,455.3,376.9,455.3z M616.7,449.4c-0.7,0-1.4-0.4-1.7-1c-0.4-0.8-0.9-1.7-1.3-2.5    c-0.5-0.9-0.2-2.1,0.8-2.6c0.9-0.5,2.1-0.2,2.6,0.8c0.5,0.8,0.9,1.7,1.4,2.6s0.1,2.1-0.8,2.6C617.3,449.3,617,449.4,616.7,449.4z     M383.5,442.7c-0.3,0-0.7-0.1-1-0.3c-0.9-0.5-1.2-1.7-0.7-2.6c0.5-0.8,1-1.7,1.5-2.5c0.6-0.9,1.7-1.2,2.6-0.6s1.2,1.7,0.6,2.6    c-0.5,0.8-1,1.6-1.5,2.4C384.8,442.4,384.2,442.7,383.5,442.7z M609.5,437.1c-0.6,0-1.2-0.3-1.6-0.9c-0.5-0.8-1-1.6-1.6-2.3    c-0.6-0.9-0.4-2.1,0.5-2.7s2.1-0.4,2.7,0.5c0.5,0.8,1.1,1.6,1.6,2.4c0.6,0.9,0.3,2.1-0.5,2.6C610.2,437,609.8,437.1,609.5,437.1z     M391.5,430.8c-0.4,0-0.8-0.1-1.1-0.4c-0.8-0.6-1-1.8-0.4-2.7c0.6-0.8,1.2-1.5,1.8-2.3c0.6-0.8,1.8-1,2.7-0.3    c0.8,0.6,1,1.8,0.3,2.7c-0.6,0.7-1.2,1.5-1.7,2.2C392.6,430.6,392,430.8,391.5,430.8z M600.9,425.6c-0.5,0-1.1-0.2-1.5-0.7    c-0.6-0.7-1.2-1.4-1.8-2.1c-0.7-0.8-0.6-2,0.2-2.7s2-0.6,2.7,0.2c0.6,0.7,1.3,1.5,1.9,2.2c0.7,0.8,0.6,2-0.2,2.7    C601.8,425.5,601.4,425.6,600.9,425.6z M400.6,419.9c-0.5,0-0.9-0.2-1.3-0.5c-0.8-0.7-0.8-1.9-0.1-2.7c0.7-0.7,1.3-1.4,2-2.1    c0.7-0.8,1.9-0.8,2.7,0c0.8,0.7,0.8,1.9,0,2.7c-0.7,0.7-1.3,1.4-1.9,2C401.7,419.7,401.2,419.9,400.6,419.9z M591.3,415.2    c-0.5,0-1-0.2-1.3-0.5c-0.7-0.7-1.4-1.3-2-1.9c-0.8-0.7-0.8-1.9-0.1-2.7c0.7-0.8,1.9-0.8,2.7-0.1c0.7,0.7,1.4,1.3,2.1,2    c0.8,0.7,0.8,1.9,0,2.7C592.2,415,591.7,415.2,591.3,415.2z M410.9,409.9c-0.5,0-1.1-0.2-1.4-0.7c-0.7-0.8-0.6-2,0.2-2.7    c0.7-0.6,1.5-1.3,2.2-1.9c0.8-0.7,2-0.6,2.7,0.3c0.7,0.8,0.6,2-0.3,2.7c-0.7,0.6-1.4,1.2-2.1,1.8    C411.8,409.8,411.4,409.9,410.9,409.9z M580.5,405.8c-0.4,0-0.8-0.1-1.2-0.4c-0.7-0.6-1.5-1.2-2.2-1.7c-0.8-0.6-1-1.8-0.4-2.7    c0.6-0.8,1.8-1,2.7-0.4c0.8,0.6,1.5,1.2,2.3,1.8c0.8,0.6,1,1.8,0.3,2.7C581.6,405.5,581.1,405.8,580.5,405.8z M422.2,401.2    c-0.6,0-1.2-0.3-1.6-0.8c-0.6-0.9-0.4-2.1,0.5-2.7c0.8-0.5,1.6-1.1,2.4-1.6c0.9-0.6,2.1-0.3,2.6,0.5c0.6,0.9,0.3,2.1-0.5,2.6    s-1.6,1-2.3,1.6C423,401.1,422.6,401.2,422.2,401.2z M568.8,397.6c-0.3,0-0.7-0.1-1-0.3c-0.8-0.5-1.6-1-2.4-1.5    c-0.9-0.5-1.2-1.7-0.7-2.6c0.5-0.9,1.7-1.2,2.6-0.7c0.8,0.5,1.7,1,2.5,1.5c0.9,0.6,1.2,1.7,0.6,2.6    C570.1,397.2,569.4,397.6,568.8,397.6z M434.3,393.8c-0.7,0-1.3-0.4-1.7-1c-0.5-0.9-0.2-2.1,0.8-2.6c0.8-0.5,1.7-0.9,2.6-1.4    s2.1-0.1,2.6,0.8s0.1,2.1-0.8,2.6c-0.8,0.4-1.7,0.9-2.5,1.3C435,393.6,434.7,393.8,434.3,393.8z M556.3,390.6    c-0.3,0-0.6-0.1-0.8-0.2c-0.8-0.4-1.7-0.8-2.6-1.2c-1-0.4-1.4-1.6-0.9-2.5c0.4-1,1.6-1.4,2.5-0.9c0.9,0.4,1.8,0.8,2.6,1.2    c0.9,0.5,1.3,1.6,0.9,2.5C557.7,390.2,557,390.6,556.3,390.6z M447.2,387.5c-0.7,0-1.5-0.4-1.8-1.2c-0.4-1,0.1-2.1,1-2.5    s1.8-0.7,2.7-1.1c1-0.4,2.1,0.1,2.5,1.1s-0.1,2.1-1.1,2.5c-0.9,0.3-1.7,0.7-2.6,1.1C447.7,387.5,447.5,387.5,447.2,387.5z     M543.1,385.1c-0.2,0-0.4,0-0.6-0.1c-0.9-0.3-1.8-0.6-2.7-0.9c-1-0.3-1.5-1.4-1.2-2.4s1.4-1.5,2.4-1.2c0.9,0.3,1.8,0.6,2.8,0.9    c1,0.4,1.5,1.4,1.2,2.4C544.6,384.6,543.9,385.1,543.1,385.1z M460.7,382.8c-0.8,0-1.6-0.5-1.8-1.4c-0.3-1,0.3-2.1,1.3-2.4    c0.9-0.3,1.9-0.5,2.8-0.8c1-0.3,2.1,0.3,2.3,1.3c0.3,1-0.3,2.1-1.3,2.3c-0.9,0.2-1.8,0.5-2.7,0.8    C461,382.8,460.9,382.8,460.7,382.8z M529.4,381c-0.1,0-0.3,0-0.4-0.1c-0.9-0.2-1.8-0.4-2.7-0.6c-1-0.2-1.7-1.2-1.5-2.3    c0.2-1,1.2-1.7,2.3-1.5c0.9,0.2,1.9,0.4,2.8,0.6c1,0.2,1.7,1.3,1.4,2.3C531,380.5,530.3,381,529.4,381z M474.6,379.5    c-0.9,0-1.7-0.6-1.9-1.6c-0.2-1,0.5-2,1.5-2.2c0.9-0.2,1.9-0.3,2.9-0.5c1-0.2,2,0.5,2.2,1.6c0.2,1-0.5,2-1.6,2.2    c-0.9,0.1-1.9,0.3-2.8,0.5C474.8,379.5,474.7,379.5,474.6,379.5z M515.4,378.5c-0.1,0-0.2,0-0.2,0c-0.9-0.1-1.9-0.2-2.8-0.3    c-1-0.1-1.8-1.1-1.7-2.1s1-1.8,2.1-1.7c1,0.1,1.9,0.2,2.9,0.3s1.8,1.1,1.6,2.1C517.1,377.8,516.3,378.5,515.4,378.5z M488.8,377.8    c-1,0-1.8-0.8-1.9-1.8c-0.1-1.1,0.7-2,1.8-2c1-0.1,1.9-0.1,2.9-0.2c1,0,1.9,0.8,2,1.8c0.1,1.1-0.8,1.9-1.8,2    c-0.9,0-1.9,0.1-2.8,0.2C488.8,377.8,488.8,377.8,488.8,377.8z M501.1,377.4L501.1,377.4c-1,0-1.9,0-2.9,0c-1.1,0-1.9-0.9-1.9-1.9    s0.9-1.9,1.9-1.9s1.9,0,2.9,0c1.1,0,1.9,0.9,1.9,1.9C503,376.6,502.1,377.4,501.1,377.4z"/>
		<g class="st1">
			<path class="st2" d="M498.3,596.7L498.3,596.7c-1,0-2,0-2.9,0c-1.1,0-1.9-0.9-1.8-2c0-1.1,0.9-1.9,2-1.8c0.9,0,1.8,0,2.7,0     c1.1,0,1.9,0.9,1.9,1.9S499.4,596.7,498.3,596.7z M509.6,595.8c-0.9,0-1.8-0.7-1.9-1.7c-0.1-1,0.6-2,1.6-2.1     c0.9-0.1,1.8-0.3,2.7-0.4c1-0.2,2,0.5,2.2,1.6c0.2,1-0.5,2-1.6,2.2C511.6,595.7,510.7,595.8,509.6,595.8     C509.8,595.8,509.7,595.8,509.6,595.8z M484.2,595.5c-0.1,0-0.2,0-0.3,0c-1-0.2-1.9-0.3-2.9-0.5s-1.7-1.2-1.5-2.2     s1.2-1.7,2.2-1.5c0.9,0.2,1.8,0.3,2.7,0.5c1,0.2,1.7,1.2,1.6,2.2C485.9,594.8,485.1,595.5,484.2,595.5z M523.5,592.8     c-0.8,0-1.6-0.5-1.8-1.3c-0.3-1,0.3-2.1,1.3-2.4c0.9-0.3,1.8-0.6,2.6-0.9c1-0.3,2.1,0.2,2.4,1.2c0.3,1-0.2,2.1-1.2,2.4     c-0.9,0.3-1.8,0.6-2.8,0.9C523.8,592.8,523.7,592.8,523.5,592.8z M470.5,592c-0.2,0-0.4,0-0.6-0.1c-0.9-0.3-1.8-0.6-2.7-1     c-1-0.4-1.5-1.5-1.1-2.5s1.5-1.5,2.5-1.1c0.9,0.3,1.7,0.6,2.6,0.9c1,0.3,1.5,1.4,1.2,2.4C472,591.5,471.3,592,470.5,592z      M536.6,587.5c-0.7,0-1.4-0.4-1.7-1.1c-0.5-0.9-0.1-2.1,0.8-2.6c0.8-0.4,1.6-0.8,2.5-1.3s2.1-0.2,2.6,0.8     c0.5,0.9,0.2,2.1-0.8,2.6c-0.8,0.5-1.7,0.9-2.6,1.3C537.2,587.5,536.9,587.5,536.6,587.5z M457.5,586.3c-0.3,0-0.6-0.1-0.9-0.2     c-0.9-0.5-1.7-0.9-2.5-1.4c-0.9-0.5-1.2-1.7-0.7-2.6c0.5-0.9,1.7-1.2,2.6-0.7c0.8,0.5,1.6,0.9,2.4,1.4c0.9,0.5,1.3,1.7,0.8,2.6     C458.8,586,458.2,586.3,457.5,586.3z M548.7,580.2c-0.6,0-1.2-0.3-1.5-0.8c-0.6-0.9-0.4-2,0.4-2.7c0.7-0.5,1.5-1.1,2.2-1.7     c0.8-0.6,2-0.5,2.7,0.3c0.6,0.8,0.5,2-0.3,2.7c-0.8,0.6-1.5,1.2-2.3,1.7C549.5,580,549.1,580.2,548.7,580.2z M445.6,578.5     c-0.4,0-0.8-0.1-1.2-0.4c-0.8-0.6-1.5-1.2-2.3-1.8c-0.8-0.7-0.9-1.9-0.2-2.7c0.7-0.8,1.9-0.9,2.7-0.2c0.7,0.6,1.4,1.2,2.2,1.7     c0.8,0.6,1,1.8,0.3,2.7C446.8,578.3,446.2,578.5,445.6,578.5z M559.4,571c-0.5,0-1-0.2-1.3-0.5c-0.8-0.7-0.8-1.9,0-2.7     c0.6-0.7,1.3-1.3,1.9-2c0.7-0.8,1.9-0.8,2.7-0.1c0.8,0.7,0.8,1.9,0.1,2.7c-0.7,0.7-1.3,1.4-2,2.1     C560.4,570.8,559.9,571,559.4,571z M435.2,569c-0.5,0-1-0.2-1.4-0.6c-0.7-0.7-1.3-1.4-1.9-2.2c-0.7-0.8-0.6-2,0.2-2.7     c0.8-0.7,2-0.6,2.7,0.2c0.6,0.7,1.2,1.4,1.8,2.1c0.7,0.8,0.7,2-0.1,2.7C436.1,568.8,435.7,569,435.2,569z M568.5,560     c-0.4,0-0.8-0.1-1.1-0.3c-0.9-0.6-1.1-1.8-0.5-2.7c0.5-0.8,1.1-1.5,1.6-2.3c0.6-0.9,1.8-1.1,2.6-0.6c0.9,0.6,1.1,1.8,0.6,2.6     s-1.1,1.6-1.6,2.4C569.7,559.8,569.1,560,568.5,560z M426.5,557.8c-0.6,0-1.2-0.3-1.6-0.9c-0.5-0.8-1-1.6-1.5-2.4     c-0.5-0.9-0.3-2.1,0.6-2.6s2.1-0.3,2.6,0.6c0.5,0.8,1,1.6,1.5,2.3c0.6,0.9,0.3,2.1-0.5,2.6C427.2,557.8,426.9,557.8,426.5,557.8z      M575.6,547.8c-0.3,0-0.6-0.1-0.8-0.2c-0.9-0.5-1.4-1.6-0.9-2.5c0.4-0.8,0.8-1.7,1.2-2.5c0.4-1,1.6-1.4,2.5-1     c1,0.4,1.4,1.5,1,2.5c-0.4,0.9-0.8,1.8-1.2,2.6C577,547.5,576.4,547.8,575.6,547.8z M419.7,545.3c-0.7,0-1.4-0.4-1.7-1.1     c-0.4-0.9-0.8-1.8-1.1-2.7c-0.4-1,0.1-2.1,1.1-2.5c1-0.4,2.1,0.1,2.5,1.1c0.3,0.9,0.7,1.7,1.1,2.5c0.4,1,0,2.1-1,2.5     C420.3,545.3,420,545.3,419.7,545.3z M580.7,534.5c-0.2,0-0.4,0-0.5-0.1c-1-0.3-1.6-1.3-1.3-2.4c0.3-0.9,0.5-1.8,0.7-2.7     c0.3-1,1.3-1.6,2.3-1.4c1,0.3,1.6,1.3,1.4,2.3c-0.2,0.9-0.5,1.9-0.8,2.8C582.3,534,581.5,534.5,580.7,534.5z M415.1,532     c-0.9,0-1.6-0.6-1.8-1.4c-0.2-0.9-0.5-1.9-0.7-2.8c-0.2-1,0.4-2,1.5-2.3c1-0.2,2,0.4,2.3,1.5c0.2,0.9,0.4,1.8,0.6,2.7     c0.3,1-0.4,2.1-1.4,2.3C415.4,532,415.3,532,415.1,532z M583.5,520.8c-0.1,0-0.1,0-0.2,0c-1-0.1-1.8-1.1-1.7-2.1     c0.1-0.9,0.2-1.8,0.3-2.8s1-1.8,2.1-1.7c1,0.1,1.8,1,1.7,2.1c-0.1,1-0.2,1.9-0.3,2.9C585.2,520,584.4,520.8,583.5,520.8z      M412.8,518c-1,0-1.8-0.8-1.9-1.7c-0.1-1-0.1-1.9-0.2-2.9c-0.1-1.1,0.8-1.9,1.8-2s1.9,0.8,2,1.8c0,0.9,0.1,1.8,0.2,2.8     s-0.7,2-1.7,2.1C412.9,518,412.8,518,412.8,518z M583.9,506.5c-1,0-1.9-0.8-1.9-1.8c0-0.9-0.1-1.8-0.2-2.8c-0.1-1,0.7-2,1.7-2.1     c1.1-0.1,2,0.7,2.1,1.7s0.1,1.9,0.2,2.9C585.9,505.6,585,506.5,583.9,506.5C584,506.5,583.9,506.5,583.9,506.5z M412.8,503.8     c-0.1,0-0.1,0-0.2,0c-1-0.1-1.8-1-1.7-2.1c0.1-1,0.2-1.9,0.3-2.9c0.1-1,1.1-1.8,2.1-1.7c1,0.1,1.8,1.1,1.7,2.1     c-0.1,0.9-0.2,1.8-0.3,2.8C414.6,503.1,413.8,503.8,412.8,503.8z M582,492.5c-0.9,0-1.7-0.6-1.9-1.5s-0.4-1.8-0.6-2.7     c-0.3-1,0.4-2.1,1.4-2.3c1-0.3,2.1,0.4,2.3,1.4c0.2,0.9,0.5,1.9,0.7,2.8c0.2,1-0.4,2-1.5,2.3C582.3,492.5,582.2,492.5,582,492.5z      M415.1,489.9c-0.2,0-0.3,0-0.5-0.1c-1-0.3-1.6-1.3-1.4-2.3c0.2-0.9,0.5-1.9,0.8-2.8c0.3-1,1.3-1.6,2.4-1.3     c1,0.3,1.6,1.3,1.3,2.4c-0.3,0.9-0.5,1.8-0.7,2.7C416.7,489.3,415.9,489.9,415.1,489.9z M577.9,478.9c-0.8,0-1.5-0.5-1.8-1.2     c-0.3-0.9-0.7-1.7-1.1-2.5c-0.4-1,0-2.1,1-2.5s2.1,0,2.5,1c0.4,0.9,0.8,1.8,1.1,2.7c0.4,1-0.1,2.1-1.1,2.5     C578.4,478.9,578.1,478.9,577.9,478.9z M419.6,476.5c-0.3,0-0.5-0.1-0.8-0.2c-1-0.4-1.4-1.5-1-2.5c0.4-0.9,0.8-1.8,1.2-2.6     c0.5-1,1.6-1.4,2.5-0.9s1.4,1.6,0.9,2.5c-0.4,0.8-0.8,1.7-1.2,2.5C421.1,476,420.4,476.5,419.6,476.5z M571.6,466.3     c-0.6,0-1.3-0.3-1.6-0.9c-0.5-0.8-1-1.6-1.5-2.3c-0.6-0.9-0.3-2.1,0.6-2.6c0.9-0.6,2.1-0.3,2.6,0.6c0.5,0.8,1,1.6,1.5,2.4     c0.5,0.9,0.3,2.1-0.6,2.6C572.2,466.2,571.9,466.3,571.6,466.3z M426.4,464c-0.4,0-0.7-0.1-1-0.3c-0.9-0.6-1.1-1.8-0.6-2.6     c0.5-0.8,1.1-1.6,1.6-2.4c0.6-0.9,1.8-1.1,2.7-0.5c0.9,0.6,1.1,1.8,0.5,2.7c-0.5,0.8-1,1.5-1.6,2.3     C427.6,463.7,427,464,426.4,464z M563.2,454.8c-0.5,0-1.1-0.2-1.4-0.7c-0.6-0.7-1.2-1.4-1.8-2.1c-0.7-0.8-0.7-2,0.1-2.7     s2-0.7,2.7,0.1c0.7,0.7,1.3,1.4,1.9,2.2c0.7,0.8,0.6,2-0.2,2.7C564.1,454.7,563.7,454.8,563.2,454.8z M435.1,452.8     c-0.5,0-0.9-0.2-1.3-0.5c-0.8-0.7-0.8-1.9-0.1-2.7c0.7-0.7,1.3-1.4,2-2.1c0.7-0.8,1.9-0.8,2.7,0c0.8,0.7,0.8,1.9,0,2.7     c-0.6,0.7-1.3,1.3-1.9,2C436.1,452.6,435.6,452.8,435.1,452.8z M553.1,444.9c-0.4,0-0.9-0.1-1.2-0.4c-0.7-0.6-1.4-1.2-2.2-1.7     c-0.8-0.6-1-1.8-0.3-2.7c0.6-0.8,1.8-1,2.7-0.3c0.8,0.6,1.5,1.2,2.3,1.8c0.8,0.7,0.9,1.9,0.2,2.7     C554.2,444.7,553.7,444.9,553.1,444.9z M445.5,443.2c-0.6,0-1.1-0.3-1.5-0.7c-0.6-0.8-0.5-2,0.3-2.7c0.8-0.6,1.5-1.2,2.3-1.7     c0.9-0.6,2-0.4,2.7,0.4c0.6,0.9,0.4,2-0.4,2.7c-0.7,0.5-1.5,1.1-2.2,1.7C446.3,443.1,445.9,443.2,445.5,443.2z M541.6,436.8     c-0.3,0-0.7-0.1-1-0.3c-0.8-0.5-1.6-0.9-2.4-1.4c-0.9-0.5-1.3-1.7-0.8-2.6s1.7-1.3,2.6-0.8c0.9,0.5,1.7,0.9,2.5,1.4     c0.9,0.5,1.2,1.7,0.7,2.6C542.8,436.4,542.2,436.8,541.6,436.8z M457.3,435.4c-0.7,0-1.3-0.4-1.7-1c-0.5-0.9-0.2-2.1,0.8-2.6     c0.8-0.5,1.7-0.9,2.6-1.3c0.9-0.5,2.1-0.1,2.6,0.8s0.1,2.1-0.8,2.6c-0.8,0.4-1.6,0.8-2.5,1.3     C457.9,435.4,457.6,435.4,457.3,435.4z M528.8,430.6c-0.2,0-0.5,0-0.7-0.1c-0.9-0.3-1.7-0.6-2.6-0.9c-1-0.3-1.5-1.4-1.2-2.4     s1.4-1.5,2.4-1.2c0.9,0.3,1.8,0.6,2.7,1c1,0.4,1.5,1.5,1.1,2.5C530.3,430.2,529.5,430.6,528.8,430.6z M470.3,429.7     c-0.8,0-1.5-0.5-1.8-1.3c-0.3-1,0.2-2.1,1.2-2.4c0.9-0.3,1.8-0.6,2.8-0.9c1-0.3,2.1,0.3,2.4,1.3s-0.3,2.1-1.3,2.4     c-0.9,0.3-1.8,0.6-2.6,0.9C470.7,429.7,470.5,429.7,470.3,429.7z M515.2,426.7c-0.1,0-0.2,0-0.4,0c-0.9-0.2-1.8-0.3-2.7-0.5     c-1-0.2-1.7-1.2-1.6-2.2c0.2-1,1.1-1.7,2.2-1.6c1,0.2,1.9,0.3,2.9,0.5s1.7,1.2,1.5,2.2C516.8,426.1,516,426.7,515.2,426.7z      M484,426.2c-0.9,0-1.7-0.7-1.9-1.6c-0.2-1,0.5-2,1.6-2.2c1-0.2,1.9-0.3,2.9-0.4s2,0.6,2.1,1.6s-0.6,2-1.6,2.1     c-0.9,0.1-1.8,0.3-2.7,0.4C484.2,426.2,484.1,426.2,484,426.2z M501.1,425.1C501.1,425.1,501,425.1,501.1,425.1c-1,0-1.9,0-2.8,0     h-0.2c-1.1,0-1.9-0.9-1.9-1.9s0.9-1.9,1.9-1.9h0.2c1,0,1.9,0,2.9,0c1.1,0,1.9,0.9,1.8,2C503,424.3,502.1,425.1,501.1,425.1z"/>
		</g>
		<g>
			<g>
				<circle class="st5" cx="412.5" cy="508.9" r="19.1"/>
				<path class="st2" d="M412.5,530c-11.6,0-21-9.4-21-21s9.4-21,21-21s21,9.4,21,21S424,530,412.5,530z M412.5,491.7      c-9.5,0-17.2,7.7-17.2,17.2c0,9.5,7.7,17.2,17.2,17.2s17.2-7.7,17.2-17.2C429.7,499.4,421.9,491.7,412.5,491.7z"/>
			</g>
		</g>
		<g>
			<g>
				<circle class="st5" cx="577.3" cy="621.3" r="19.1"/>
				<path class="st2" d="M577.3,642.3c-11.6,0-21-9.4-21-21c0-11.6,9.4-21,21-21s21,9.4,21,21C598.3,633,588.9,642.3,577.3,642.3z       M577.3,604.2c-9.5,0-17.2,7.7-17.2,17.2s7.7,17.2,17.2,17.2s17.2-7.7,17.2-17.2S586.8,604.2,577.3,604.2z"/>
			</g>
		</g>
		<g>
			<path class="st2" d="M326.8,511.8v-7.1c0-0.7,0.5-1.1,1-1.1s0.9,0.2,1.1,0.8l2.4,3.7l2.3-3.7c0.3-0.5,0.7-0.8,1.1-0.8     c0.7,0,1.1,0.5,1.1,1.1v7.1c0,0.6-0.5,1-1,1c-0.6,0-1-0.5-1-1v-4.4l-1.5,2.3c-0.3,0.5-0.7,0.7-1,0.7c-0.4,0-0.8-0.2-1-0.7     l-1.5-2.3v4.4c0,0.6-0.5,1-1,1S326.8,512.5,326.8,511.8z"/>
			<path class="st2" d="M337.5,511.8v-7.1c0-0.6,0.4-1,1-1h3.9c0.5,0,1,0.4,1,1s-0.4,0.9-1,0.9h-2.9v1.8h2.4c0.5,0,0.9,0.4,0.9,0.9     s-0.4,0.9-0.9,0.9h-2.4v1.9h3c0.5,0,1,0.4,1,0.9s-0.4,1-1,1h-4C338,512.8,337.5,512.3,337.5,511.8z"/>
			<path class="st2" d="M344.5,511.8v-7.1c0-0.5,0.5-1,1-1h2.2c2.2,0,3.3,1.3,3.3,2.9c0,1.2-0.7,2.1-1.6,2.6l1.7,1.9     c0.2,0.2,0.3,0.4,0.3,0.8c0,0.6-0.5,1-1,1c-0.3,0-0.6-0.1-0.9-0.5l-2.3-2.9h-0.8v2.3c0,0.6-0.5,1-1,1S344.5,512.5,344.5,511.8z      M347.5,507.8c0.9,0,1.3-0.4,1.3-1.1s-0.6-1.1-1.3-1.1h-1v2.4L347.5,507.8L347.5,507.8z"/>
			<path class="st2" d="M351.9,508.2c0-2.8,2.1-4.7,4.7-4.7c1,0,1.7,0.2,2.1,0.4c0.6,0.3,0.8,0.6,0.8,1c0,0.5-0.4,0.9-0.9,0.9     c-0.3,0-0.5-0.1-0.7-0.2c-0.3-0.2-0.8-0.3-1.2-0.3c-1.7,0-2.7,1.3-2.7,2.9c0,1.4,0.9,2.9,2.6,2.9c0.6,0,1-0.1,1.3-0.3     c0.3-0.1,0.6-0.3,0.9-0.3c0.5,0,0.9,0.3,0.9,0.9c0,0.3-0.2,0.6-0.4,0.8c-0.4,0.4-1.3,0.8-2.6,0.8     C353.9,513,351.9,511,351.9,508.2z"/>
			<path class="st2" d="M360.4,509v-4.3c0-0.6,0.5-1,1-1c0.6,0,1,0.5,1,1v4.3c0,1.6,1,2.2,1.9,2.2c1,0,1.9-0.6,1.9-2.2v-4.4     c0-0.6,0.5-1,1-1s1,0.4,1,1v4.4c0,2.7-1.9,3.9-3.9,3.9S360.4,511.7,360.4,509z"/>
			<path class="st2" d="M369.7,511.8v-7.1c0-0.5,0.5-1,1-1h2.2c2.2,0,3.3,1.3,3.3,2.9c0,1.2-0.7,2.1-1.6,2.6l1.7,1.9     c0.2,0.2,0.3,0.4,0.3,0.8c0,0.6-0.5,1-1,1c-0.3,0-0.6-0.1-0.9-0.5l-2.3-2.9h-0.8v2.3c0,0.6-0.5,1-1,1     C370.2,512.8,369.7,512.5,369.7,511.8z M372.8,507.8c0.9,0,1.3-0.4,1.3-1.1s-0.6-1.1-1.3-1.1h-1v2.4L372.8,507.8L372.8,507.8z"/>
			<path class="st2" d="M379.6,511.8v-2.4l-2.6-4.1c-0.2-0.3-0.2-0.5-0.2-0.7c0-0.6,0.4-1,1-1c0.3,0,0.7,0.2,0.9,0.5     c0.7,1,1.3,2.2,2.1,3.4c0.7-1.1,1.3-2.3,2-3.4c0.2-0.4,0.5-0.5,0.9-0.5c0.5,0,1,0.4,1,1c0,0.2-0.1,0.4-0.2,0.7l-2.6,4.2v2.5     c0,0.6-0.5,1-1,1S379.6,512.5,379.6,511.8z"/>
		</g>
		<g>
			<path class="st2" d="M484.2,478.6c-0.4-0.3-0.7-0.6-0.7-1s0.4-0.9,1-0.9c0.3,0,0.6,0.2,0.8,0.3c0.4,0.3,0.9,0.5,1.5,0.5     c0.8,0,1.1-0.4,1.1-0.9c0-0.7-0.8-0.9-1.6-1.1c-1.6-0.6-2.5-1.3-2.5-2.8c0-1.6,1.1-2.8,3.1-2.8c1,0,1.6,0.2,2,0.4     c0.4,0.2,0.7,0.5,0.7,1s-0.3,1-0.8,1c-0.3,0-0.5-0.1-0.7-0.2c-0.4-0.1-0.7-0.3-1.1-0.3c-0.7,0-1.1,0.4-1.1,0.8     c0,0.7,0.8,0.9,1.7,1.2c1.2,0.5,2.4,1,2.4,2.8s-1.4,2.8-3.2,2.8C485.9,479.4,484.9,479.1,484.2,478.6z"/>
			<path class="st2" d="M491,475.4v-4.3c0-0.6,0.5-1,1-1s1,0.5,1,1v4.3c0,1.6,1,2.2,1.9,2.2c1,0,1.9-0.6,1.9-2.2V471     c0-0.6,0.5-1,1-1s1,0.4,1,1v4.4c0,2.7-1.9,3.9-3.9,3.9C492.9,479.4,491,478,491,475.4z"/>
			<path class="st2" d="M500.3,478.3v-7.1c0-0.7,0.6-1.1,1.2-1.1c0.4,0,0.8,0.1,1.1,0.7l3.7,5.1l0,0v-4.8c0-0.6,0.4-1,1-1s1,0.4,1,1     v7.1c0,0.7-0.6,1.1-1.2,1.1c-0.3,0-0.8-0.2-1.1-0.7l-3.7-5l0,0v4.7c0,0.6-0.4,1-1,1C500.8,479.3,500.3,478.9,500.3,478.3z"/>
		</g>
		<g>
			<g>
				<g>
					<circle class="st7" cx="498.3" cy="508.9" r="19.1"/>
					<path class="st7" d="M498.3,530c-11.6,0-21-9.4-21-21s9.4-21,21-21s21,9.4,21,21S509.8,530,498.3,530z M498.3,491.7       c-9.5,0-17.2,7.7-17.2,17.2c0,9.5,7.7,17.2,17.2,17.2s17.2-7.7,17.2-17.2C515.5,499.4,507.7,491.7,498.3,491.7z"/>
				</g>
			</g>
		</g>
		<path class="st8" d="M495.5,691.9L495.5,691.9c-1,0-2,0-2.9-0.1c-1.1,0-1.9-0.9-1.8-2c0-1,0.9-1.8,1.9-1.8c0,0,0,0,0.1,0    c0.9,0,1.9,0.1,2.8,0.1c1.1,0,1.9,0.9,1.9,1.9C497.4,691,496.5,691.9,495.5,691.9z M506.9,691.7c-1,0-1.9-0.8-1.9-1.8    c0-1.1,0.8-1.9,1.8-2c0.9,0,1.9-0.1,2.8-0.2c1-0.1,2,0.7,2,1.8c0.1,1.1-0.7,2-1.8,2C508.9,691.5,508,691.7,506.9,691.7    C507,691.7,507,691.7,506.9,691.7z M481.2,691.2c-0.1,0-0.1,0-0.2,0c-1-0.1-1.9-0.2-2.9-0.3s-1.8-1.1-1.7-2.1s1.1-1.8,2.1-1.7    c0.9,0.1,1.9,0.2,2.8,0.3c1,0.1,1.8,1,1.7,2.1C483,690.4,482.2,691.2,481.2,691.2z M521.2,690.5c-0.9,0-1.8-0.7-1.9-1.7    c-0.1-1,0.6-2,1.7-2.1c0.9-0.1,1.9-0.2,2.8-0.4c1-0.1,2,0.6,2.2,1.6c0.1,1-0.6,2-1.6,2.2c-1,0.1-1.9,0.3-2.9,0.4    C521.3,690.5,521.2,690.5,521.2,690.5z M467.1,689.2c-0.1,0-0.2,0-0.3,0c-1-0.2-1.9-0.3-2.8-0.5c-1-0.2-1.7-1.2-1.5-2.2    s1.2-1.7,2.2-1.5c0.9,0.2,1.9,0.3,2.8,0.5c1,0.2,1.7,1.2,1.6,2.2C468.8,688.5,468,689.2,467.1,689.2z M535.2,688.2    c-0.9,0-1.7-0.6-1.9-1.5c-0.2-1,0.4-2,1.5-2.3c0.9-0.2,1.8-0.4,2.8-0.6c1-0.2,2,0.4,2.3,1.4s-0.4,2-1.4,2.3    c-0.9,0.2-1.9,0.4-2.8,0.6C535.5,688.2,535.4,688.2,535.2,688.2z M453.1,686.2c-0.2,0-0.3,0-0.5-0.1c-0.9-0.2-1.9-0.5-2.8-0.7    c-1-0.3-1.6-1.3-1.3-2.3c0.3-1,1.3-1.6,2.3-1.3c0.9,0.2,1.8,0.5,2.7,0.7c1,0.3,1.6,1.3,1.4,2.3C454.7,685.7,454,686.2,453.1,686.2    z M549.1,684.7c-0.8,0-1.6-0.5-1.8-1.4c-0.3-1,0.3-2.1,1.3-2.4c0.9-0.3,1.8-0.5,2.7-0.8c1-0.3,2.1,0.3,2.4,1.3    c0.3,1-0.3,2.1-1.3,2.4c-0.9,0.3-1.8,0.6-2.8,0.8C549.5,684.7,549.3,684.7,549.1,684.7z M439.4,682.2c-0.2,0-0.4,0-0.6-0.1    c-0.9-0.3-1.8-0.6-2.7-1c-1-0.4-1.5-1.4-1.1-2.4s1.5-1.5,2.4-1.1c0.9,0.3,1.8,0.6,2.7,0.9c1,0.3,1.5,1.4,1.2,2.4    C440.9,681.7,440.2,682.2,439.4,682.2z M562.6,680.2c-0.8,0-1.5-0.5-1.8-1.2c-0.4-1,0.1-2.1,1.1-2.5c0.9-0.3,1.8-0.7,2.6-1    c1-0.4,2.1,0.1,2.5,1.1s-0.1,2.1-1.1,2.5c-0.9,0.4-1.8,0.7-2.7,1C563.1,680,562.9,680.2,562.6,680.2z M426.1,677    c-0.3,0-0.5-0.1-0.8-0.2c-0.9-0.4-1.8-0.8-2.6-1.2c-1-0.4-1.4-1.6-0.9-2.5c0.4-1,1.6-1.4,2.5-0.9c0.9,0.4,1.7,0.8,2.6,1.2    c1,0.4,1.4,1.5,1,2.5C427.5,676.5,426.8,677,426.1,677z M575.8,674.5c-0.7,0-1.4-0.4-1.7-1.1c-0.5-1,0-2.1,0.9-2.5    c0.8-0.4,1.7-0.8,2.5-1.2c0.9-0.5,2.1-0.1,2.6,0.9c0.5,0.9,0.1,2.1-0.9,2.6c-0.9,0.4-1.7,0.8-2.6,1.3    C576.3,674.5,576,674.5,575.8,674.5z M413.2,670.8c-0.3,0-0.6-0.1-0.9-0.2c-0.9-0.5-1.7-0.9-2.5-1.4c-0.9-0.5-1.3-1.7-0.7-2.6    c0.5-0.9,1.7-1.3,2.6-0.7c0.8,0.5,1.7,0.9,2.5,1.4c0.9,0.5,1.3,1.6,0.8,2.6C414.5,670.4,413.9,670.8,413.2,670.8z M588.4,667.9    c-0.7,0-1.3-0.3-1.7-1c-0.5-0.9-0.2-2.1,0.7-2.6c0.8-0.5,1.6-0.9,2.4-1.4c0.9-0.5,2.1-0.2,2.6,0.7s0.2,2.1-0.7,2.6    c-0.8,0.5-1.7,1-2.5,1.5C589.1,667.9,588.7,667.9,588.4,667.9z M400.8,663.5c-0.4,0-0.7-0.1-1-0.3c-0.8-0.5-1.6-1-2.4-1.6    c-0.9-0.6-1.1-1.8-0.5-2.6c0.6-0.9,1.8-1.1,2.6-0.5c0.8,0.5,1.6,1,2.4,1.5c0.9,0.6,1.1,1.7,0.6,2.6    C402.1,663.2,401.5,663.5,400.8,663.5z M600.5,660.2c-0.6,0-1.2-0.3-1.6-0.8c-0.6-0.9-0.4-2.1,0.5-2.6c0.8-0.5,1.5-1.1,2.3-1.6    c0.9-0.6,2-0.4,2.7,0.5c0.6,0.9,0.4,2-0.5,2.7c-0.8,0.6-1.6,1.1-2.4,1.6C601.2,660.2,600.9,660.2,600.5,660.2z M389.1,655.4    c-0.4,0-0.8-0.1-1.1-0.4c-0.8-0.6-1.5-1.2-2.3-1.8s-1-1.8-0.3-2.7c0.6-0.8,1.8-1,2.7-0.3c0.7,0.6,1.5,1.2,2.2,1.7    c0.8,0.6,1,1.8,0.4,2.7C390.3,655,389.7,655.4,389.1,655.4z M611.9,651.8c-0.6,0-1.1-0.2-1.5-0.7c-0.7-0.8-0.5-2,0.3-2.7    c0.7-0.6,1.5-1.2,2.2-1.8c0.8-0.7,2-0.6,2.7,0.2c0.7,0.8,0.6,2-0.2,2.7c-0.7,0.6-1.5,1.2-2.2,1.8    C612.8,651.7,612.4,651.8,611.9,651.8z M378.1,646.2c-0.4,0-0.9-0.2-1.3-0.5c-0.7-0.6-1.4-1.3-2.1-1.9c-0.8-0.7-0.8-1.9-0.1-2.7    c0.7-0.8,1.9-0.8,2.7-0.1c0.7,0.6,1.4,1.3,2.1,1.9c0.8,0.7,0.9,1.9,0.2,2.7C379.1,646,378.6,646.2,378.1,646.2z M622.7,642.3    c-0.5,0-1-0.2-1.4-0.6c-0.7-0.8-0.7-2,0.1-2.7c0.7-0.6,1.4-1.3,2-2c0.8-0.7,2-0.7,2.7,0c0.7,0.8,0.7,2,0,2.7s-1.4,1.3-2.1,2    C623.6,642.2,623.2,642.3,622.7,642.3z M367.8,636.3c-0.5,0-1-0.2-1.4-0.6c-0.7-0.7-1.3-1.4-2-2.1c-0.7-0.8-0.7-2,0.1-2.7    c0.8-0.7,2-0.7,2.7,0.1c0.6,0.7,1.3,1.4,1.9,2.1c0.7,0.8,0.7,2-0.1,2.7C368.7,636.2,368.2,636.3,367.8,636.3z M632.7,632.2    c-0.5,0-0.9-0.2-1.3-0.5c-0.8-0.7-0.8-1.9-0.1-2.7c0.6-0.7,1.3-1.4,1.9-2.1c0.7-0.8,1.9-0.9,2.7-0.2c0.8,0.7,0.9,1.9,0.2,2.7    c-0.6,0.7-1.3,1.4-1.9,2.2C633.7,632,633.2,632.2,632.7,632.2z M358.3,625.7c-0.6,0-1.1-0.2-1.5-0.7c-0.6-0.7-1.2-1.5-1.8-2.2    c-0.7-0.8-0.5-2,0.3-2.7s2-0.5,2.7,0.3c0.6,0.7,1.2,1.5,1.8,2.2c0.7,0.8,0.6,2-0.3,2.7C359.1,625.5,358.7,625.7,358.3,625.7z     M641.8,621.2c-0.4,0-0.8-0.1-1.2-0.4c-0.8-0.6-1-1.8-0.3-2.7c0.6-0.7,1.1-1.5,1.7-2.3c0.6-0.8,1.8-1,2.7-0.4    c0.8,0.6,1,1.8,0.4,2.7c-0.6,0.8-1.2,1.5-1.7,2.3C643,621,642.4,621.2,641.8,621.2z M349.7,614.3c-0.6,0-1.2-0.3-1.6-0.8    c-0.5-0.8-1.1-1.6-1.6-2.4c-0.6-0.9-0.4-2.1,0.5-2.6c0.9-0.6,2.1-0.4,2.6,0.5c0.5,0.8,1.1,1.6,1.6,2.3c0.6,0.9,0.4,2.1-0.5,2.7    C350.4,614.2,350,614.3,349.7,614.3z M650.1,609.5c-0.4,0-0.7-0.1-1-0.3c-0.9-0.6-1.1-1.8-0.6-2.6c0.5-0.8,1-1.6,1.5-2.4    c0.6-0.9,1.7-1.2,2.6-0.6c0.9,0.6,1.2,1.7,0.6,2.6c-0.5,0.8-1,1.6-1.6,2.4C651.3,609.2,650.7,609.5,650.1,609.5z M342,602.2    c-0.7,0-1.3-0.3-1.6-0.9c-0.5-0.8-1-1.7-1.4-2.5c-0.5-0.9-0.2-2.1,0.7-2.6c0.9-0.5,2.1-0.2,2.6,0.7c0.5,0.8,0.9,1.6,1.4,2.4    c0.5,0.9,0.2,2.1-0.7,2.6C342.6,602.2,342.3,602.2,342,602.2z M657.4,597.2c-0.3,0-0.6-0.1-0.9-0.2c-0.9-0.5-1.3-1.7-0.8-2.6    c0.5-0.8,0.9-1.7,1.3-2.5c0.5-0.9,1.6-1.3,2.6-0.8c0.9,0.5,1.3,1.6,0.8,2.6c-0.4,0.9-0.9,1.7-1.4,2.6    C658.7,596.8,658.1,597.2,657.4,597.2z M335.2,589.8c-0.7,0-1.4-0.4-1.7-1.1c-0.4-0.9-0.8-1.7-1.2-2.6c-0.4-1,0-2.1,0.9-2.5    c1-0.4,2.1,0,2.5,0.9c0.4,0.9,0.8,1.7,1.2,2.5c0.5,0.9,0.1,2.1-0.9,2.5C335.8,589.7,335.5,589.8,335.2,589.8z M663.7,584.3    c-0.3,0-0.5-0.1-0.8-0.2c-1-0.4-1.4-1.6-1-2.5c0.4-0.9,0.8-1.7,1.1-2.6c0.4-1,1.5-1.4,2.5-1c1,0.4,1.4,1.5,1,2.5    c-0.4,0.9-0.8,1.8-1.2,2.7C665.2,584,664.5,584.3,663.7,584.3z M329.5,576.7c-0.8,0-1.5-0.5-1.8-1.2c-0.3-0.9-0.7-1.8-1-2.7    c-0.4-1,0.1-2.1,1.1-2.5c1-0.4,2.1,0.1,2.5,1.1c0.3,0.9,0.7,1.8,1,2.6c0.4,1-0.1,2.1-1.1,2.5C330,576.5,329.8,576.7,329.5,576.7z     M669,571c-0.2,0-0.4,0-0.6-0.1c-1-0.3-1.5-1.4-1.2-2.4c0.3-0.9,0.6-1.8,0.9-2.7c0.3-1,1.4-1.5,2.4-1.2s1.5,1.4,1.2,2.4    c-0.3,0.9-0.6,1.8-0.9,2.7C670.6,570.7,669.8,571,669,571z M324.9,563.2c-0.8,0-1.6-0.5-1.8-1.4c-0.3-0.9-0.5-1.8-0.8-2.8    s0.3-2.1,1.3-2.4s2.1,0.3,2.4,1.3c0.3,0.9,0.5,1.8,0.8,2.7c0.3,1-0.3,2.1-1.3,2.4C325.2,563.2,325,563.2,324.9,563.2z     M673.3,557.5c-0.2,0-0.3,0-0.5-0.1c-1-0.3-1.6-1.3-1.4-2.3c0.2-0.9,0.5-1.8,0.7-2.7c0.3-1,1.3-1.6,2.3-1.4c1,0.3,1.6,1.3,1.4,2.3    c-0.2,0.9-0.5,1.9-0.7,2.8C674.9,556.8,674.1,557.5,673.3,557.5z M321.3,549.2c-0.9,0-1.7-0.6-1.9-1.5c-0.2-0.9-0.4-1.9-0.6-2.8    c-0.2-1,0.5-2,1.5-2.2s2,0.5,2.2,1.5c0.2,0.9,0.4,1.8,0.6,2.8s-0.4,2-1.5,2.3C321.6,549.2,321.4,549.2,321.3,549.2z M676.4,543.5    c-0.1,0-0.2,0-0.3,0c-1-0.2-1.7-1.2-1.5-2.2c0.2-0.9,0.3-1.9,0.5-2.8c0.2-1,1.1-1.7,2.2-1.6c1,0.2,1.7,1.2,1.6,2.2    c-0.2,1-0.3,1.9-0.5,2.8C678.1,542.8,677.3,543.5,676.4,543.5z M318.8,535.2c-0.9,0-1.8-0.7-1.9-1.7s-0.2-1.9-0.4-2.9    c-0.1-1,0.6-2,1.7-2.1c1-0.1,2,0.6,2.1,1.7c0.1,0.9,0.2,1.9,0.4,2.8c0.1,1-0.6,2-1.6,2.1C319,535.2,318.9,535.2,318.8,535.2z     M678.4,529.3c-0.1,0-0.1,0-0.2,0c-1-0.1-1.8-1-1.7-2.1c0.1-0.9,0.2-1.9,0.3-2.8c0.1-1,1-1.8,2.1-1.7c1,0.1,1.8,1,1.7,2.1    c-0.1,1-0.2,1.9-0.3,2.9C680.2,528.7,679.3,529.3,678.4,529.3z M317.5,521c-1,0-1.8-0.8-1.9-1.8s-0.1-1.9-0.1-2.9    c0-1.1,0.8-1.9,1.8-2c1-0.1,1.9,0.8,2,1.8c0,0.9,0.1,1.9,0.1,2.8c0.1,1.1-0.7,1.9-1.8,2C317.5,521,317.5,521,317.5,521z     M679.3,515C679.2,515,679.2,515,679.3,515c-1.1,0-1.9-0.9-1.9-1.9c0-0.9,0-1.9,0-2.8c0-1.1,0.9-1.9,1.9-1.9    c1.1,0,1.9,0.9,1.9,1.9s0,1.9,0,2.9C681.1,514.2,680.3,515,679.3,515z M317.2,506.7L317.2,506.7c-1.1,0-1.9-0.9-1.9-1.9    s0.1-1.9,0.1-2.9c0-1.1,0.9-1.9,2-1.8c1.1,0,1.9,0.9,1.8,2c0,0.9-0.1,1.9-0.1,2.8S318.3,506.7,317.2,506.7z M679,500.8    c-1,0-1.8-0.8-1.9-1.8c-0.1-0.9-0.1-1.9-0.2-2.8c-0.1-1.1,0.7-2,1.8-2c1.1-0.1,2,0.7,2,1.8c0.1,1,0.1,1.9,0.2,2.9    c0.1,1.1-0.8,1.9-1.8,2C679.1,500.7,679.1,500.8,679,500.8z M318.1,492.4c-0.1,0-0.1,0-0.2,0c-1-0.1-1.8-1-1.7-2.1    c0.1-1,0.2-1.9,0.3-2.9c0.1-1,1.1-1.8,2.1-1.7c1,0.1,1.8,1.1,1.7,2.1c-0.1,0.9-0.2,1.9-0.3,2.8    C319.9,491.7,319.1,492.4,318.1,492.4z M677.7,486.5c-0.9,0-1.8-0.7-1.9-1.7c-0.1-0.9-0.3-1.9-0.4-2.8c-0.2-1,0.6-2,1.6-2.2    s2,0.6,2.2,1.6c0.1,1,0.3,1.9,0.4,2.9c0.1,1-0.6,2-1.6,2.1C677.9,486.5,677.8,486.5,677.7,486.5z M320.1,478.3c-0.1,0-0.2,0-0.3,0    c-1-0.2-1.7-1.2-1.5-2.2c0.2-0.9,0.4-1.9,0.5-2.8c0.2-1,1.2-1.7,2.2-1.5s1.7,1.2,1.5,2.2c-0.2,0.9-0.4,1.9-0.5,2.8    C321.8,477.6,321,478.3,320.1,478.3z M675.2,472.5c-0.9,0-1.7-0.6-1.9-1.5s-0.4-1.8-0.6-2.8c-0.2-1,0.4-2,1.4-2.3    c1-0.2,2.1,0.4,2.3,1.4c0.2,0.9,0.4,1.9,0.6,2.8c0.2,1-0.4,2-1.5,2.3C675.5,472.4,675.4,472.5,675.2,472.5z M323.2,464.3    c-0.2,0-0.3,0-0.5-0.1c-1-0.3-1.6-1.3-1.4-2.3c0.2-0.9,0.5-1.9,0.8-2.8c0.3-1,1.3-1.6,2.4-1.3c1,0.3,1.6,1.3,1.3,2.4    c-0.3,0.9-0.5,1.8-0.7,2.7C324.8,463.8,324.1,464.3,323.2,464.3z M671.7,458.6c-0.8,0-1.6-0.5-1.8-1.4c-0.3-0.9-0.6-1.8-0.8-2.7    c-0.3-1,0.2-2.1,1.2-2.4s2.1,0.2,2.4,1.2c0.3,0.9,0.6,1.8,0.9,2.8c0.3,1-0.3,2.1-1.3,2.4C672,458.6,671.9,458.6,671.7,458.6z     M327.4,450.7c-0.2,0-0.4,0-0.6-0.1c-1-0.3-1.5-1.4-1.2-2.4c0.3-0.9,0.6-1.8,1-2.7c0.4-1,1.5-1.5,2.4-1.1c1,0.4,1.5,1.5,1.1,2.4    c-0.3,0.9-0.6,1.8-1,2.7C328.9,450.2,328.2,450.7,327.4,450.7z M667,445.1c-0.8,0-1.5-0.5-1.8-1.2c-0.3-0.9-0.7-1.8-1-2.6    c-0.4-1,0.1-2.1,1-2.5c1-0.4,2.1,0.1,2.5,1s0.7,1.8,1.1,2.7c0.4,1-0.1,2.1-1.1,2.5C667.5,445.1,667.2,445.1,667,445.1z     M332.7,437.4c-0.3,0-0.5-0.1-0.8-0.2c-1-0.4-1.4-1.6-1-2.5s0.8-1.8,1.2-2.6c0.4-1,1.6-1.4,2.5-0.9c1,0.4,1.4,1.6,0.9,2.5    c-0.4,0.9-0.8,1.7-1.2,2.6C334.1,436.9,333.4,437.4,332.7,437.4z M661.3,432c-0.7,0-1.4-0.4-1.7-1.1c-0.4-0.8-0.8-1.7-1.2-2.5    c-0.5-0.9-0.1-2.1,0.8-2.6c0.9-0.5,2.1-0.1,2.6,0.8c0.4,0.9,0.9,1.7,1.3,2.6c0.5,0.9,0.1,2.1-0.9,2.5    C661.9,432,661.6,432,661.3,432z M339,424.5c-0.3,0-0.6-0.1-0.9-0.2c-0.9-0.5-1.3-1.7-0.8-2.6c0.5-0.8,0.9-1.7,1.4-2.5    c0.5-0.9,1.7-1.2,2.6-0.7s1.2,1.7,0.7,2.6c-0.5,0.8-0.9,1.6-1.4,2.5C340.4,424.2,339.7,424.5,339,424.5z M654.6,419.4    c-0.7,0-1.3-0.3-1.6-0.9c-0.5-0.8-1-1.6-1.4-2.4c-0.5-0.9-0.3-2.1,0.6-2.6c0.9-0.5,2.1-0.3,2.6,0.6c0.5,0.8,1,1.6,1.5,2.5    s0.2,2.1-0.7,2.6C655.3,419.4,654.9,419.4,654.6,419.4z M346.3,412.2c-0.4,0-0.7-0.1-1-0.3c-0.9-0.6-1.1-1.8-0.6-2.6    c0.5-0.8,1.1-1.6,1.6-2.4c0.6-0.9,1.8-1.1,2.6-0.5c0.9,0.6,1.1,1.8,0.5,2.6c-0.5,0.8-1,1.6-1.6,2.4    C347.6,411.9,347,412.2,346.3,412.2z M646.9,407.4c-0.6,0-1.2-0.3-1.6-0.8c-0.5-0.8-1.1-1.5-1.6-2.3c-0.6-0.9-0.4-2,0.4-2.7    c0.9-0.6,2-0.4,2.7,0.4c0.6,0.8,1.1,1.6,1.7,2.4c0.6,0.9,0.4,2.1-0.5,2.7C647.7,407.3,647.3,407.4,646.9,407.4z M354.6,400.6    c-0.4,0-0.8-0.1-1.2-0.4c-0.8-0.6-1-1.8-0.4-2.7c0.6-0.8,1.2-1.5,1.8-2.3c0.7-0.8,1.9-1,2.7-0.3c0.8,0.7,1,1.9,0.3,2.7    c-0.6,0.7-1.2,1.5-1.7,2.2C355.7,400.3,355.2,400.6,354.6,400.6z M638.3,396c-0.6,0-1.1-0.2-1.5-0.7c-0.6-0.7-1.2-1.5-1.8-2.2    c-0.7-0.8-0.6-2,0.2-2.7c0.8-0.7,2-0.6,2.7,0.2c0.6,0.7,1.2,1.5,1.8,2.2c0.7,0.8,0.5,2-0.3,2.7C639.1,395.9,638.7,396,638.3,396z     M363.8,389.6c-0.5,0-0.9-0.2-1.3-0.5c-0.8-0.7-0.8-1.9-0.1-2.7c0.6-0.7,1.3-1.4,2-2.1c0.7-0.8,1.9-0.8,2.7-0.1    c0.8,0.7,0.8,1.9,0.1,2.7c-0.6,0.7-1.3,1.4-1.9,2.1C364.8,389.4,364.3,389.6,363.8,389.6z M628.8,385.4c-0.5,0-1-0.2-1.4-0.6    c-0.7-0.7-1.3-1.4-2-2c-0.7-0.7-0.7-2,0-2.7c0.7-0.7,2-0.7,2.7,0c0.7,0.7,1.4,1.4,2,2.1c0.7,0.8,0.7,2-0.1,2.7    C629.8,385.2,629.3,385.4,628.8,385.4z M373.7,379.4c-0.5,0-1-0.2-1.4-0.6c-0.7-0.8-0.7-2,0.1-2.7c0.7-0.7,1.4-1.3,2.1-2    c0.8-0.7,2-0.7,2.7,0.1c0.7,0.8,0.7,2-0.1,2.7c-0.7,0.6-1.4,1.3-2.1,1.9C374.7,379.2,374.2,379.4,373.7,379.4z M618.5,375.5    c-0.5,0-0.9-0.2-1.3-0.5c-0.7-0.6-1.4-1.2-2.1-1.9c-0.8-0.7-0.9-1.9-0.2-2.7c0.7-0.8,1.9-0.9,2.7-0.2c0.7,0.6,1.5,1.3,2.2,1.9    c0.8,0.7,0.9,1.9,0.2,2.7C619.6,375.2,619,375.5,618.5,375.5z M384.5,370c-0.6,0-1.1-0.2-1.5-0.7c-0.7-0.8-0.5-2,0.3-2.7    c0.7-0.6,1.5-1.2,2.3-1.8s2-0.5,2.7,0.3c0.6,0.8,0.5,2-0.3,2.7c-0.7,0.6-1.5,1.2-2.2,1.8C385.3,369.8,384.9,370,384.5,370z     M607.5,366.4c-0.4,0-0.8-0.1-1.1-0.4c-0.8-0.6-1.5-1.1-2.3-1.7c-0.8-0.6-1-1.8-0.4-2.7c0.6-0.8,1.8-1,2.7-0.4    c0.8,0.6,1.6,1.1,2.3,1.7c0.8,0.6,1,1.8,0.4,2.7C608.6,366.1,608,366.4,607.5,366.4z M395.9,361.4c-0.6,0-1.2-0.3-1.6-0.8    c-0.6-0.9-0.4-2.1,0.5-2.6c0.8-0.5,1.6-1.1,2.4-1.6c0.9-0.6,2.1-0.3,2.6,0.5c0.6,0.9,0.3,2.1-0.5,2.6s-1.6,1-2.3,1.6    C396.7,361.3,396.3,361.4,395.9,361.4z M595.7,358.2c-0.4,0-0.7-0.1-1-0.3c-0.8-0.5-1.6-1-2.4-1.5c-0.9-0.6-1.2-1.7-0.6-2.6    c0.6-0.9,1.7-1.2,2.6-0.6c0.8,0.5,1.6,1,2.4,1.5c0.9,0.6,1.1,1.7,0.6,2.6C597,357.9,596.4,358.2,595.7,358.2z M408,353.8    c-0.7,0-1.3-0.3-1.7-1c-0.5-0.9-0.2-2.1,0.7-2.6c0.8-0.5,1.7-1,2.5-1.4c0.9-0.5,2.1-0.2,2.6,0.7s0.2,2.1-0.7,2.6    c-0.8,0.5-1.6,0.9-2.5,1.4C408.6,353.8,408.3,353.8,408,353.8z M583.4,351c-0.3,0-0.6-0.1-0.9-0.2c-0.8-0.4-1.7-0.9-2.5-1.3    c-0.9-0.5-1.3-1.6-0.8-2.6c0.5-0.9,1.6-1.3,2.6-0.8c0.9,0.4,1.7,0.9,2.6,1.3c0.9,0.5,1.3,1.7,0.8,2.6    C584.7,350.6,584.1,351,583.4,351z M420.6,347.2c-0.7,0-1.4-0.4-1.7-1.1c-0.5-1,0-2.1,0.9-2.5s1.7-0.8,2.6-1.2    c1-0.4,2.1,0,2.5,0.9c0.4,1,0,2.1-0.9,2.5s-1.7,0.8-2.6,1.2C421.2,347.1,420.9,347.2,420.6,347.2z M570.5,344.8    c-0.3,0-0.5-0.1-0.8-0.2c-0.9-0.4-1.7-0.7-2.6-1.1c-1-0.4-1.4-1.5-1-2.5s1.5-1.4,2.5-1c0.9,0.4,1.8,0.8,2.7,1.1    c1,0.4,1.4,1.5,1,2.5C572,344.3,571.3,344.8,570.5,344.8z M433.7,341.6c-0.8,0-1.5-0.5-1.8-1.2c-0.4-1,0.1-2.1,1.1-2.5    c0.9-0.3,1.8-0.7,2.7-1c1-0.4,2.1,0.2,2.4,1.1c0.4,1-0.2,2.1-1.1,2.4c-0.9,0.3-1.8,0.7-2.7,1C434.2,341.5,434,341.6,433.7,341.6z     M557.2,339.6c-0.2,0-0.4,0-0.6-0.1c-0.9-0.3-1.8-0.6-2.7-0.9c-1-0.3-1.5-1.4-1.2-2.4s1.4-1.5,2.4-1.2c0.9,0.3,1.8,0.6,2.8,0.9    c1,0.3,1.5,1.4,1.2,2.4C558.7,339.1,558,339.6,557.2,339.6z M447.3,337c-0.8,0-1.6-0.5-1.8-1.4c-0.3-1,0.3-2.1,1.3-2.4    c0.9-0.3,1.8-0.5,2.8-0.8c1-0.3,2.1,0.3,2.3,1.3c0.3,1-0.3,2.1-1.3,2.3c-0.9,0.3-1.8,0.5-2.7,0.8C447.6,337,447.5,337,447.3,337z     M543.5,335.4c-0.2,0-0.3,0-0.5-0.1c-0.9-0.2-1.8-0.5-2.7-0.7c-1-0.2-1.7-1.3-1.4-2.3c0.2-1,1.3-1.7,2.3-1.4    c0.9,0.2,1.9,0.5,2.8,0.7c1,0.3,1.6,1.3,1.4,2.3C545.1,334.9,544.3,335.4,543.5,335.4z M461.1,333.6c-0.9,0-1.7-0.6-1.9-1.5    c-0.2-1,0.4-2,1.5-2.3c0.9-0.2,1.9-0.4,2.8-0.6c1-0.2,2,0.5,2.2,1.5s-0.5,2-1.5,2.2c-0.9,0.2-1.9,0.4-2.8,0.6    C461.4,333.5,461.3,333.6,461.1,333.6z M529.5,332.4c-0.1,0-0.2,0-0.3,0c-0.9-0.2-1.9-0.3-2.8-0.5c-1-0.2-1.7-1.1-1.6-2.2    c0.2-1,1.1-1.7,2.2-1.6c1,0.2,1.9,0.3,2.8,0.5c1,0.2,1.7,1.2,1.6,2.2C531.2,331.8,530.4,332.4,529.5,332.4z M475.2,331.2    c-0.9,0-1.8-0.7-1.9-1.7c-0.1-1,0.6-2,1.7-2.1c1-0.1,1.9-0.2,2.9-0.3c1.1-0.1,2,0.6,2.1,1.7c0.1,1-0.6,2-1.7,2.1    c-0.9,0.1-1.9,0.2-2.8,0.3C475.4,331.2,475.3,331.2,475.2,331.2z M515.4,330.5c-0.1,0-0.1,0-0.2,0c-0.9-0.1-1.9-0.2-2.8-0.2    c-1-0.1-1.8-1-1.8-2c0.1-1,1-1.8,2-1.8c1,0.1,1.9,0.2,2.9,0.2c1,0.1,1.8,1,1.7,2.1C517.2,329.8,516.3,330.5,515.4,330.5z     M489.4,330c-1,0-1.9-0.8-1.9-1.8c-0.1-1.1,0.8-1.9,1.8-2c1,0,1.9-0.1,2.9-0.1c1.1,0,1.9,0.8,2,1.8c0,1.1-0.8,1.9-1.8,2    C491.4,329.9,490.5,329.9,489.4,330C489.5,330,489.5,330,489.4,330z M501.1,329.8L501.1,329.8c-1,0-1.9,0-2.9,0    c-1.1,0-1.9-0.9-1.9-1.9s0.9-1.9,1.9-1.9s1.9,0,2.9,0c1.1,0,1.9,0.9,1.9,1.9C503,328.9,502.1,329.8,501.1,329.8z"/>
	</g>
	<g>
		<g>
			<circle class="st5" cx="498.3" cy="325.9" r="19.1"/>
			<path class="st2" d="M498.3,346.9c-11.6,0-21-9.4-21-21s9.4-21,21-21s21,9.4,21,21C519.2,337.5,509.8,346.9,498.3,346.9z      M498.3,308.8c-9.5,0-17.2,7.7-17.2,17.2s7.7,17.2,17.2,17.2s17.2-7.7,17.2-17.2C515.4,316.5,507.7,308.8,498.3,308.8z"/>
		</g>
	</g>
	<g>
		<path class="st2" d="M526.5,327.4v-7.1c0-0.6,0.4-1,1-1h3.9c0.5,0,1,0.4,1,1s-0.4,0.9-1,0.9h-2.9v1.8h2.4c0.5,0,0.9,0.4,0.9,0.9    s-0.4,0.9-0.9,0.9h-2.4v1.9h3c0.5,0,1,0.4,1,0.9s-0.4,1-1,1h-4C526.8,328.4,526.5,327.9,526.5,327.4z"/>
		<path class="st2" d="M532.6,327.6c0-0.2,0-0.3,0.1-0.6l2.8-6.8c0.3-0.8,0.9-1,1.3-1c0.6,0,1,0.3,1.3,1l2.7,6.8    c0.1,0.2,0.1,0.4,0.1,0.5c0,0.6-0.4,1-1,1c-0.5,0-0.8-0.3-1-0.7l-0.5-1.1h-3.8l-0.5,1.1c-0.2,0.4-0.5,0.7-0.9,0.7    C533,328.5,532.6,328,532.6,327.6z M538.1,325l-1.2-3.1h-0.1l-1.1,3.1H538.1z"/>
		<path class="st2" d="M541.9,327.5v-7.1c0-0.5,0.5-1,1-1h2.2c2.2,0,3.3,1.3,3.3,2.9c0,1.2-0.7,2.1-1.6,2.6l1.7,1.9    c0.2,0.2,0.3,0.4,0.3,0.8c0,0.6-0.5,1-1,1c-0.3,0-0.6-0.1-0.9-0.5l-2.3-2.9h-0.8v2.3c0,0.6-0.5,1-1,1    C542.4,328.5,541.9,328,541.9,327.5z M544.9,323.5c0.9,0,1.3-0.4,1.3-1.1s-0.6-1.1-1.3-1.1h-1v2.4L544.9,323.5L544.9,323.5z"/>
		<path class="st2" d="M551.7,327.5v-6.3h-2c-0.5,0-0.9-0.4-0.9-1c0-0.5,0.4-1,0.9-1h6c0.5,0,0.9,0.4,0.9,1c0,0.5-0.4,1-0.9,1h-2    v6.3c0,0.6-0.5,1-1,1S551.7,328,551.7,327.5z"/>
		<path class="st2" d="M557.4,327.5v-7.2c0-0.6,0.5-1,1-1c0.6,0,1,0.5,1,1v2.7h3.8v-2.7c0-0.6,0.5-1,1-1s1,0.5,1,1v7.1    c0,0.6-0.5,1-1,1s-1-0.5-1-1v-2.7h-3.8v2.7c0,0.6-0.5,1-1,1C557.9,328.4,557.4,328,557.4,327.5z"/>
	</g>
	<g>
		<path class="st2" d="M608.7,625.8l-2.9-6.8c-0.1-0.2-0.1-0.4-0.1-0.6c0-0.6,0.5-1,1-1s0.9,0.3,1,0.7c0.8,1.9,1.5,3.8,2.3,5.8    c0.8-2,1.5-3.9,2.2-5.6c0.2-0.6,0.5-0.8,1-0.8s1,0.4,1,1c0,0.2,0,0.4-0.1,0.6l-2.9,6.9c-0.3,0.6-0.8,0.9-1.1,0.9    C609.5,626.8,609,626.5,608.7,625.8z"/>
		<path class="st2" d="M614.9,625.7v-7.1c0-0.6,0.4-1,1-1h3.9c0.5,0,1,0.4,1,1c0,0.6-0.4,0.9-1,0.9h-2.9v1.8h2.4    c0.5,0,0.9,0.4,0.9,0.9s-0.4,0.9-0.9,0.9h-2.4v1.9h3c0.5,0,1,0.4,1,0.9s-0.4,1-1,1h-4C615.4,626.8,614.9,626.2,614.9,625.7z"/>
		<path class="st2" d="M621.9,625.8v-7.1c0-0.7,0.6-1.1,1.2-1.1c0.4,0,0.8,0.1,1.1,0.7l3.7,5.1l0,0v-4.8c0-0.6,0.4-1,1-1s1,0.4,1,1    v7.1c0,0.7-0.6,1.1-1.2,1.1c-0.3,0-0.8-0.2-1.1-0.7l-3.7-5l0,0v4.7c0,0.6-0.4,1-1,1C622.3,626.8,621.9,626.3,621.9,625.8z"/>
		<path class="st2" d="M631.5,623v-4.4c0-0.6,0.5-1,1-1c0.6,0,1,0.5,1,1v4.3c0,1.6,1,2.2,1.9,2.2s1.9-0.6,1.9-2.2v-4.3    c0-0.6,0.5-1,1-1s1,0.4,1,1v4.4c0,2.7-1.9,3.9-3.9,3.9S631.5,625.5,631.5,623z"/>
		<path class="st2" d="M640.9,626c-0.4-0.3-0.7-0.6-0.7-1c0-0.4,0.4-0.9,1-0.9c0.3,0,0.6,0.2,0.8,0.3c0.4,0.3,0.9,0.5,1.5,0.5    c0.8,0,1.1-0.4,1.1-0.9c0-0.7-0.8-0.9-1.6-1.1c-1.6-0.6-2.5-1.3-2.5-2.8c0-1.6,1.1-2.8,3.1-2.8c1,0,1.6,0.2,2,0.4    c0.4,0.2,0.7,0.5,0.7,1s-0.3,1-0.8,1c-0.3,0-0.5-0.1-0.7-0.2c-0.4-0.1-0.7-0.3-1.1-0.3c-0.7,0-1.1,0.4-1.1,0.8    c0,0.7,0.8,0.9,1.7,1.2c1.2,0.5,2.4,1,2.4,2.8s-1.4,2.8-3.2,2.8C642.6,626.8,641.7,626.5,640.9,626z"/>
	</g>
</g>
<path class="st9" d="M315.8,344.2c-0.4-0.4-0.6-0.8-0.5-1.3c0-1,0.9-1.9,1.9-1.9h23.6v-23.6c0-1,0.9-1.9,1.9-1.9  c1,0,1.9,0.9,1.9,1.9v25.5c0,0.6-0.1,1-0.5,1.3s-0.8,0.6-1.3,0.5h-25.5C316.7,344.7,316.2,344.5,315.8,344.2z"/>
</svg>
